%TF.GenerationSoftware,KiCad,Pcbnew,10.0.1*%
%TF.CreationDate,2026-08-08T22:50:46-05:00*%
%TF.ProjectId,controlador de vuelo,636f6e74-726f-46c6-9164-6f7220646520,rev?*%
%TF.SameCoordinates,Original*%
%TF.FileFunction,Soldermask,Top*%
%TF.FilePolarity,Negative*%
%FSLAX46Y46*%
G04 Gerber Fmt 4.6, Leading zero omitted, Abs format (unit mm)*
G04 Created by KiCad (PCBNEW 10.0.1) date 2026-08-08 22:50:46*
%MOMM*%
%LPD*%
G01*
G04 APERTURE LIST*
G04 Aperture macros list*
%AMRoundRect*
0 Rectangle with rounded corners*
0 $1 Rounding radius*
0 $2 $3 $4 $5 $6 $7 $8 $9 X,Y pos of 4 corners*
0 Add a 4 corners polygon primitive as box body*
4,1,4,$2,$3,$4,$5,$6,$7,$8,$9,$2,$3,0*
0 Add four circle primitives for the rounded corners*
1,1,$1+$1,$2,$3*
1,1,$1+$1,$4,$5*
1,1,$1+$1,$6,$7*
1,1,$1+$1,$8,$9*
0 Add four rect primitives between the rounded corners*
20,1,$1+$1,$2,$3,$4,$5,0*
20,1,$1+$1,$4,$5,$6,$7,0*
20,1,$1+$1,$6,$7,$8,$9,0*
20,1,$1+$1,$8,$9,$2,$3,0*%
G04 Aperture macros list end*
%ADD10RoundRect,0.100000X0.130000X0.100000X-0.130000X0.100000X-0.130000X-0.100000X0.130000X-0.100000X0*%
%ADD11RoundRect,0.100000X-0.130000X-0.100000X0.130000X-0.100000X0.130000X0.100000X-0.130000X0.100000X0*%
%ADD12R,0.650000X0.650000*%
%ADD13RoundRect,0.147500X0.147500X0.172500X-0.147500X0.172500X-0.147500X-0.172500X0.147500X-0.172500X0*%
%ADD14RoundRect,0.100000X-0.100000X0.130000X-0.100000X-0.130000X0.100000X-0.130000X0.100000X0.130000X0*%
%ADD15RoundRect,0.250000X-0.250000X-0.475000X0.250000X-0.475000X0.250000X0.475000X-0.250000X0.475000X0*%
%ADD16C,0.700000*%
%ADD17O,1.100000X2.000000*%
%ADD18O,1.200000X1.800000*%
%ADD19R,0.550000X1.100000*%
%ADD20R,0.300000X1.100000*%
%ADD21R,1.700000X1.700000*%
%ADD22C,1.700000*%
%ADD23RoundRect,0.140000X-0.140000X-0.170000X0.140000X-0.170000X0.140000X0.170000X-0.140000X0.170000X0*%
%ADD24R,2.160000X1.635000*%
%ADD25RoundRect,0.225000X0.250000X-0.225000X0.250000X0.225000X-0.250000X0.225000X-0.250000X-0.225000X0*%
%ADD26R,1.000000X3.800000*%
%ADD27R,1.400000X1.200000*%
%ADD28R,1.500000X3.320000*%
%ADD29C,1.000000*%
%ADD30R,0.600000X1.300000*%
%ADD31R,1.200000X1.400000*%
%ADD32R,1.200000X2.000000*%
%ADD33R,0.800000X0.864000*%
%ADD34RoundRect,0.225000X-0.225000X-0.250000X0.225000X-0.250000X0.225000X0.250000X-0.225000X0.250000X0*%
%ADD35RoundRect,0.140000X0.140000X0.170000X-0.140000X0.170000X-0.140000X-0.170000X0.140000X-0.170000X0*%
%ADD36RoundRect,0.150000X-0.512500X-0.150000X0.512500X-0.150000X0.512500X0.150000X-0.512500X0.150000X0*%
%ADD37R,0.250000X0.700000*%
%ADD38R,0.700000X0.250000*%
%ADD39R,0.250000X1.450000*%
%ADD40R,0.250000X1.850000*%
%ADD41R,1.230000X1.860000*%
%ADD42R,0.280000X0.700000*%
%ADD43R,0.700000X0.280000*%
%ADD44R,2.800000X2.800000*%
%ADD45RoundRect,0.075000X-0.700000X-0.075000X0.700000X-0.075000X0.700000X0.075000X-0.700000X0.075000X0*%
%ADD46RoundRect,0.075000X-0.075000X-0.700000X0.075000X-0.700000X0.075000X0.700000X-0.075000X0.700000X0*%
%ADD47RoundRect,0.135000X0.135000X0.185000X-0.135000X0.185000X-0.135000X-0.185000X0.135000X-0.185000X0*%
%ADD48RoundRect,0.250000X0.750000X0.750000X-0.750000X0.750000X-0.750000X-0.750000X0.750000X-0.750000X0*%
%ADD49C,2.000000*%
%ADD50R,0.300000X0.300000*%
%ADD51R,1.000000X1.800000*%
%ADD52R,0.675000X0.280000*%
%ADD53R,0.280000X0.675000*%
G04 APERTURE END LIST*
D10*
%TO.C,R23*%
X240880000Y-96700000D03*
X241520000Y-96700000D03*
%TD*%
D11*
%TO.C,R25*%
X240980000Y-97800000D03*
X241620000Y-97800000D03*
%TD*%
D10*
%TO.C,R24*%
X241620000Y-98900000D03*
X240980000Y-98900000D03*
%TD*%
D12*
%TO.C,LED1*%
X208680000Y-78630000D03*
X209520000Y-78630000D03*
X208680000Y-77370000D03*
X209520000Y-77370000D03*
%TD*%
D13*
%TO.C,D1*%
X225485000Y-85250000D03*
X224515000Y-85250000D03*
%TD*%
D14*
%TO.C,R21*%
X231500000Y-75525000D03*
X231500000Y-76165000D03*
%TD*%
%TO.C,R17*%
X234620000Y-75440000D03*
X234620000Y-76080000D03*
%TD*%
D15*
%TO.C,C13*%
X219750000Y-123000000D03*
X221650000Y-123000000D03*
%TD*%
D14*
%TO.C,R20*%
X229000000Y-75550000D03*
X229000000Y-76190000D03*
%TD*%
D11*
%TO.C,C20*%
X217400000Y-75750000D03*
X218040000Y-75750000D03*
%TD*%
%TO.C,R10*%
X212835000Y-90500000D03*
X213475000Y-90500000D03*
%TD*%
D10*
%TO.C,C36*%
X216320000Y-96000000D03*
X215680000Y-96000000D03*
%TD*%
D16*
%TO.C,USB1*%
X226860000Y-121080000D03*
X232640000Y-121080000D03*
D17*
X225430000Y-120550000D03*
D18*
X225430000Y-124760000D03*
D17*
X234070000Y-120550000D03*
D18*
X234070000Y-124760000D03*
D19*
X226550000Y-120000000D03*
X227350000Y-120000000D03*
D20*
X228500000Y-120000000D03*
X229500000Y-120000000D03*
X230000000Y-120000000D03*
X231000000Y-120000000D03*
D19*
X232950000Y-120000000D03*
X232150000Y-120000000D03*
D20*
X231500000Y-120000000D03*
X230500000Y-120000000D03*
X229000000Y-120000000D03*
X228000000Y-120000000D03*
%TD*%
D11*
%TO.C,R4*%
X233930000Y-82000000D03*
X234570000Y-82000000D03*
%TD*%
D21*
%TO.C,J2*%
X205250000Y-111000000D03*
D22*
X205250000Y-113540000D03*
X205250000Y-116080000D03*
%TD*%
D11*
%TO.C,R8*%
X231680000Y-78750000D03*
X232320000Y-78750000D03*
%TD*%
%TO.C,R6*%
X212610000Y-96000000D03*
X213250000Y-96000000D03*
%TD*%
D23*
%TO.C,C3*%
X233000000Y-85000000D03*
X233960000Y-85000000D03*
%TD*%
D14*
%TO.C,R16*%
X233750000Y-75430000D03*
X233750000Y-76070000D03*
%TD*%
D11*
%TO.C,C37*%
X239085000Y-112000000D03*
X239725000Y-112000000D03*
%TD*%
D24*
%TO.C,L5*%
X224250000Y-79160000D03*
X224250000Y-81500000D03*
%TD*%
D25*
%TO.C,C16*%
X236500000Y-87250000D03*
X236500000Y-85700000D03*
%TD*%
D26*
%TO.C,L6*%
X217650000Y-115000000D03*
X215250000Y-115000000D03*
%TD*%
D27*
%TO.C,X1*%
X219050000Y-98500000D03*
X221250000Y-98500000D03*
X221250000Y-96800000D03*
X219050000Y-96800000D03*
%TD*%
D28*
%TO.C,L7*%
X242730000Y-102100000D03*
X240070000Y-102100000D03*
%TD*%
D21*
%TO.C,J3*%
X205250000Y-102000000D03*
D22*
X205250000Y-104540000D03*
X205250000Y-107080000D03*
%TD*%
D11*
%TO.C,R12*%
X214335000Y-122750000D03*
X214975000Y-122750000D03*
%TD*%
D15*
%TO.C,C7*%
X219800000Y-114250000D03*
X221700000Y-114250000D03*
%TD*%
D29*
%TO.C,Card1*%
X234400000Y-60600000D03*
X226400000Y-60600000D03*
D30*
X227210000Y-71450000D03*
X228310000Y-71450000D03*
X229410000Y-71450000D03*
X230510000Y-71450000D03*
X231610000Y-71450000D03*
X232710000Y-71450000D03*
X233810000Y-71450000D03*
X234910000Y-71450000D03*
X236010000Y-71450000D03*
D31*
X237210000Y-70600000D03*
D32*
X237210000Y-60890000D03*
X221690000Y-60890000D03*
D31*
X222530000Y-70600000D03*
%TD*%
D33*
%TO.C,L4*%
X222800000Y-101250000D03*
X224200000Y-101250000D03*
%TD*%
D11*
%TO.C,C25*%
X244110000Y-106500000D03*
X244750000Y-106500000D03*
%TD*%
D34*
%TO.C,C6*%
X236975000Y-82500000D03*
X238525000Y-82500000D03*
%TD*%
D15*
%TO.C,C11*%
X211000000Y-115000000D03*
X212900000Y-115000000D03*
%TD*%
%TO.C,C8*%
X219850000Y-117250000D03*
X221750000Y-117250000D03*
%TD*%
D10*
%TO.C,C15*%
X241320000Y-83500000D03*
X240680000Y-83500000D03*
%TD*%
D34*
%TO.C,C9*%
X211200000Y-120250000D03*
X212750000Y-120250000D03*
%TD*%
D35*
%TO.C,C17*%
X241000000Y-93000000D03*
X240040000Y-93000000D03*
%TD*%
D11*
%TO.C,R5*%
X212680000Y-94000000D03*
X213320000Y-94000000D03*
%TD*%
%TO.C,R3*%
X234110000Y-80000000D03*
X234750000Y-80000000D03*
%TD*%
%TO.C,C4*%
X234180000Y-87500000D03*
X234820000Y-87500000D03*
%TD*%
D23*
%TO.C,C1*%
X225520000Y-87000000D03*
X226480000Y-87000000D03*
%TD*%
D36*
%TO.C,U6*%
X239750000Y-86250000D03*
X239750000Y-87200000D03*
X239750000Y-88150000D03*
X242025000Y-88150000D03*
X242025000Y-87200000D03*
X242025000Y-86250000D03*
%TD*%
D34*
%TO.C,C12*%
X211200000Y-117750000D03*
X212750000Y-117750000D03*
%TD*%
D11*
%TO.C,R7*%
X222835000Y-88750000D03*
X223475000Y-88750000D03*
%TD*%
D37*
%TO.C,U5*%
X215550000Y-120700000D03*
X216050000Y-120700000D03*
X216550000Y-120700000D03*
X217050000Y-120700000D03*
D38*
X217750000Y-120250000D03*
X217750000Y-119750000D03*
X217750000Y-119250000D03*
X217750000Y-118750000D03*
D39*
X216800000Y-118660000D03*
D40*
X216300000Y-118860000D03*
D39*
X215800000Y-118660000D03*
D38*
X214850000Y-118750000D03*
X214850000Y-119250000D03*
X214850000Y-119750000D03*
X214850000Y-120250000D03*
%TD*%
D10*
%TO.C,R1*%
X227820000Y-117000000D03*
X227180000Y-117000000D03*
%TD*%
D11*
%TO.C,R11*%
X212835000Y-92250000D03*
X213475000Y-92250000D03*
%TD*%
%TO.C,C33*%
X218430000Y-100000000D03*
X219070000Y-100000000D03*
%TD*%
%TO.C,C14*%
X216860000Y-122750000D03*
X217500000Y-122750000D03*
%TD*%
%TO.C,R9*%
X221180000Y-83500000D03*
X221820000Y-83500000D03*
%TD*%
D41*
%TO.C,SW2*%
X219140000Y-108000000D03*
X223500000Y-108000000D03*
%TD*%
D15*
%TO.C,C10*%
X219850000Y-120250000D03*
X221750000Y-120250000D03*
%TD*%
D14*
%TO.C,R18*%
X227000000Y-75525000D03*
X227000000Y-76165000D03*
%TD*%
D23*
%TO.C,C18*%
X242520000Y-93000000D03*
X243480000Y-93000000D03*
%TD*%
D42*
%TO.C,U1*%
X228000000Y-85000000D03*
X228500000Y-85000000D03*
X229000000Y-85000000D03*
X229500000Y-85000000D03*
X230000000Y-85000000D03*
X230500000Y-85000000D03*
D43*
X231250000Y-84250000D03*
X231250000Y-83750000D03*
X231250000Y-83250000D03*
X231250000Y-82750000D03*
X231250000Y-82250000D03*
X231250000Y-81750000D03*
D42*
X230500000Y-81000000D03*
X230000000Y-81000000D03*
X229500000Y-81000000D03*
X229000000Y-81000000D03*
X228500000Y-81000000D03*
X228010000Y-81000000D03*
D43*
X227250000Y-81750000D03*
X227250000Y-82250000D03*
X227250000Y-82750000D03*
X227250000Y-83250000D03*
X227250000Y-83750000D03*
X227250000Y-84250000D03*
D44*
X229260000Y-83000000D03*
%TD*%
D41*
%TO.C,SW1*%
X237390000Y-115250000D03*
X241750000Y-115250000D03*
%TD*%
D23*
%TO.C,C29*%
X237295000Y-106750000D03*
X238255000Y-106750000D03*
%TD*%
D45*
%TO.C,U3*%
X225650000Y-91500000D03*
X225650000Y-92000000D03*
X225650000Y-92500000D03*
X225650000Y-93000000D03*
X225650000Y-93500000D03*
X225650000Y-94000000D03*
X225650000Y-94500000D03*
X225650000Y-95000000D03*
X225650000Y-95500000D03*
X225650000Y-96000000D03*
X225650000Y-96500000D03*
X225650000Y-97000000D03*
X225650000Y-97500000D03*
X225650000Y-98000000D03*
X225650000Y-98500000D03*
X225650000Y-99000000D03*
D46*
X227575000Y-100925000D03*
X228075000Y-100925000D03*
X228575000Y-100925000D03*
X229075000Y-100925000D03*
X229575000Y-100925000D03*
X230075000Y-100925000D03*
X230575000Y-100925000D03*
X231075000Y-100925000D03*
X231575000Y-100925000D03*
X232075000Y-100925000D03*
X232575000Y-100925000D03*
X233075000Y-100925000D03*
X233575000Y-100925000D03*
X234075000Y-100925000D03*
X234575000Y-100925000D03*
X235075000Y-100925000D03*
D45*
X237000000Y-99000000D03*
X237000000Y-98500000D03*
X237000000Y-98000000D03*
X237000000Y-97500000D03*
X237000000Y-97000000D03*
X237000000Y-96500000D03*
X237000000Y-96000000D03*
X237000000Y-95500000D03*
X237000000Y-95000000D03*
X237000000Y-94500000D03*
X237000000Y-94000000D03*
X237000000Y-93500000D03*
X237000000Y-93000000D03*
X237000000Y-92500000D03*
X237000000Y-92000000D03*
X237000000Y-91500000D03*
D46*
X235075000Y-89575000D03*
X234575000Y-89575000D03*
X234075000Y-89575000D03*
X233575000Y-89575000D03*
X233075000Y-89575000D03*
X232575000Y-89575000D03*
X232075000Y-89575000D03*
X231575000Y-89575000D03*
X231075000Y-89575000D03*
X230575000Y-89575000D03*
X230075000Y-89575000D03*
X229575000Y-89575000D03*
X229075000Y-89575000D03*
X228575000Y-89575000D03*
X228075000Y-89575000D03*
X227575000Y-89575000D03*
%TD*%
D23*
%TO.C,C28*%
X237195000Y-108750000D03*
X238155000Y-108750000D03*
%TD*%
D11*
%TO.C,C32*%
X234335000Y-104000000D03*
X234975000Y-104000000D03*
%TD*%
D23*
%TO.C,C31*%
X240065000Y-108750000D03*
X241025000Y-108750000D03*
%TD*%
D11*
%TO.C,C27*%
X244110000Y-110000000D03*
X244750000Y-110000000D03*
%TD*%
D47*
%TO.C,R15*%
X243510000Y-91500000D03*
X242490000Y-91500000D03*
%TD*%
D34*
%TO.C,C2*%
X244225000Y-73250000D03*
X245775000Y-73250000D03*
%TD*%
D11*
%TO.C,R22*%
X221085000Y-105500000D03*
X221725000Y-105500000D03*
%TD*%
%TO.C,C22*%
X228930000Y-110250000D03*
X229570000Y-110250000D03*
%TD*%
%TO.C,C34*%
X223180000Y-96000000D03*
X223820000Y-96000000D03*
%TD*%
D14*
%TO.C,C19*%
X215470000Y-77930000D03*
X215470000Y-78570000D03*
%TD*%
D48*
%TO.C,J1*%
X247000000Y-68750000D03*
D49*
X244460000Y-68750000D03*
%TD*%
D10*
%TO.C,C35*%
X224070000Y-92500000D03*
X223430000Y-92500000D03*
%TD*%
D11*
%TO.C,R13*%
X212585000Y-122000000D03*
X213225000Y-122000000D03*
%TD*%
D23*
%TO.C,C30*%
X240065000Y-106780000D03*
X241025000Y-106780000D03*
%TD*%
D11*
%TO.C,R2*%
X231525000Y-118260000D03*
X232165000Y-118260000D03*
%TD*%
D47*
%TO.C,R14*%
X241000000Y-91500000D03*
X239980000Y-91500000D03*
%TD*%
D14*
%TO.C,R19*%
X228000000Y-75525000D03*
X228000000Y-76165000D03*
%TD*%
D11*
%TO.C,C21*%
X228930000Y-109250000D03*
X229570000Y-109250000D03*
%TD*%
%TO.C,C23*%
X244110000Y-111500000D03*
X244750000Y-111500000D03*
%TD*%
%TO.C,C24*%
X244110000Y-104750000D03*
X244750000Y-104750000D03*
%TD*%
D50*
%TO.C,U8*%
X216940000Y-77720000D03*
X216940000Y-78220000D03*
X217220000Y-78750000D03*
X217720000Y-78750000D03*
X218220000Y-78750000D03*
X218500000Y-78220000D03*
X218500000Y-77720000D03*
X218220000Y-77190000D03*
X217720000Y-77190000D03*
X217220000Y-77190000D03*
%TD*%
D51*
%TO.C,X2*%
X218000000Y-94250000D03*
X220500000Y-94250000D03*
%TD*%
D52*
%TO.C,U7*%
X232000000Y-106750000D03*
X232000000Y-106250000D03*
X232000000Y-105750000D03*
X232000000Y-105250000D03*
D53*
X231240000Y-104990000D03*
X230740000Y-104990000D03*
X230240000Y-104990000D03*
D52*
X229480000Y-105250000D03*
X229480000Y-105750000D03*
X229480000Y-106250000D03*
X229480000Y-106750000D03*
D53*
X230240000Y-107010000D03*
X230740000Y-107010000D03*
X231240000Y-107010000D03*
%TD*%
D11*
%TO.C,C26*%
X244110000Y-108250000D03*
X244750000Y-108250000D03*
%TD*%
D23*
%TO.C,C5*%
X219270000Y-88720000D03*
X220230000Y-88720000D03*
%TD*%
M02*
