%TF.GenerationSoftware,KiCad,Pcbnew,10.0.1*%
%TF.CreationDate,2026-08-08T22:50:46-05:00*%
%TF.ProjectId,controlador de vuelo,636f6e74-726f-46c6-9164-6f7220646520,rev?*%
%TF.SameCoordinates,Original*%
%TF.FileFunction,Copper,L2,Bot*%
%TF.FilePolarity,Positive*%
%FSLAX46Y46*%
G04 Gerber Fmt 4.6, Leading zero omitted, Abs format (unit mm)*
G04 Created by KiCad (PCBNEW 10.0.1) date 2026-08-08 22:50:46*
%MOMM*%
%LPD*%
G01*
G04 APERTURE LIST*
G04 Aperture macros list*
%AMRoundRect*
0 Rectangle with rounded corners*
0 $1 Rounding radius*
0 $2 $3 $4 $5 $6 $7 $8 $9 X,Y pos of 4 corners*
0 Add a 4 corners polygon primitive as box body*
4,1,4,$2,$3,$4,$5,$6,$7,$8,$9,$2,$3,0*
0 Add four circle primitives for the rounded corners*
1,1,$1+$1,$2,$3*
1,1,$1+$1,$4,$5*
1,1,$1+$1,$6,$7*
1,1,$1+$1,$8,$9*
0 Add four rect primitives between the rounded corners*
20,1,$1+$1,$2,$3,$4,$5,0*
20,1,$1+$1,$4,$5,$6,$7,0*
20,1,$1+$1,$6,$7,$8,$9,0*
20,1,$1+$1,$8,$9,$2,$3,0*%
G04 Aperture macros list end*
%TA.AperFunction,ComponentPad*%
%ADD10C,0.700000*%
%TD*%
%TA.AperFunction,ComponentPad*%
%ADD11O,1.100000X2.000000*%
%TD*%
%TA.AperFunction,ComponentPad*%
%ADD12O,1.200000X1.800000*%
%TD*%
%TA.AperFunction,ComponentPad*%
%ADD13R,1.700000X1.700000*%
%TD*%
%TA.AperFunction,ComponentPad*%
%ADD14C,1.700000*%
%TD*%
%TA.AperFunction,ComponentPad*%
%ADD15C,1.000000*%
%TD*%
%TA.AperFunction,ComponentPad*%
%ADD16RoundRect,0.250000X0.750000X0.750000X-0.750000X0.750000X-0.750000X-0.750000X0.750000X-0.750000X0*%
%TD*%
%TA.AperFunction,ComponentPad*%
%ADD17C,2.000000*%
%TD*%
%TA.AperFunction,ViaPad*%
%ADD18C,0.600000*%
%TD*%
%TA.AperFunction,Conductor*%
%ADD19C,0.200000*%
%TD*%
G04 APERTURE END LIST*
D10*
%TO.P,USB1,*%
%TO.N,*%
X226860000Y-121080000D03*
X232640000Y-121080000D03*
D11*
%TO.P,USB1,13,EH_13*%
%TO.N,GND*%
X225430000Y-120550000D03*
D12*
X225430000Y-124760000D03*
D11*
%TO.P,USB1,14,EH_14*%
X234070000Y-120550000D03*
D12*
X234070000Y-124760000D03*
%TD*%
D13*
%TO.P,J2,1,Pin_1_1*%
%TO.N,+5V*%
X205250000Y-111000000D03*
D14*
%TO.P,J2,2,Pin_2_2*%
%TO.N,/SERVO1*%
X205250000Y-113540000D03*
%TO.P,J2,3,Pin_3_3*%
%TO.N,GND*%
X205250000Y-116080000D03*
%TD*%
D13*
%TO.P,J3,1,Pin_1_1*%
%TO.N,+5V*%
X205250000Y-102000000D03*
D14*
%TO.P,J3,2,Pin_2_2*%
%TO.N,/SERVO2*%
X205250000Y-104540000D03*
%TO.P,J3,3,Pin_3_3*%
%TO.N,GND*%
X205250000Y-107080000D03*
%TD*%
D15*
%TO.P,Card1,*%
%TO.N,*%
X234400000Y-60600000D03*
X226400000Y-60600000D03*
%TD*%
D16*
%TO.P,J1,1,Pin_1_1*%
%TO.N,BAT+*%
X247000000Y-68750000D03*
D17*
%TO.P,J1,2,Pin_2_2*%
%TO.N,GND*%
X244460000Y-68750000D03*
%TD*%
D18*
%TO.N,Net-(LED1-B)*%
X208700000Y-79700000D03*
X246300000Y-97000000D03*
%TO.N,Net-(LED1-G)*%
X211300000Y-78400000D03*
X245600000Y-96400000D03*
%TO.N,Net-(LED1-R)*%
X211900000Y-77100000D03*
X245086091Y-95613909D03*
%TO.N,Net-(D1-A)*%
X223296474Y-84891956D03*
X220938235Y-86561765D03*
%TO.N,/SD_CLK*%
X233175000Y-86674265D03*
X231339998Y-69070002D03*
%TO.N,+3.3V*%
X228250000Y-106500000D03*
X228067537Y-77182463D03*
X213565000Y-92274884D03*
X224900000Y-76465687D03*
X216000000Y-91500000D03*
X231113263Y-105812769D03*
%TO.N,/SD_DAT1*%
X244450735Y-95049265D03*
X245549265Y-91700735D03*
%TO.N,GND*%
X236863177Y-81525000D03*
X232500000Y-75000000D03*
X238255000Y-106750000D03*
X217000000Y-81250000D03*
X244500000Y-93000000D03*
X226401136Y-85036912D03*
X219139265Y-80610735D03*
X240000000Y-81500000D03*
X224900000Y-102949997D03*
X244325735Y-86825735D03*
X237000000Y-105000000D03*
X239500000Y-110000000D03*
X226275903Y-86650000D03*
X226250000Y-102750000D03*
X212500000Y-118000000D03*
X221650000Y-123000000D03*
X221000000Y-88750000D03*
X224598521Y-82920007D03*
X235400000Y-83839999D03*
X221500000Y-90500000D03*
X240220000Y-93146570D03*
X243500000Y-82500000D03*
X227250000Y-82109998D03*
X222500000Y-92600000D03*
X239750000Y-86250000D03*
X234000000Y-78600000D03*
X229640000Y-107750000D03*
X218500000Y-122500000D03*
X212900000Y-115000000D03*
X223000000Y-91000000D03*
X243510000Y-91500000D03*
X244500000Y-83000000D03*
%TO.N,/SD_CMD*%
X229089998Y-68470002D03*
X235380301Y-83011171D03*
%TO.N,/I2C_SCL*%
X216296736Y-77951793D03*
X215000000Y-79500000D03*
X228107314Y-92900000D03*
X221735735Y-84264265D03*
%TO.N,VBUS*%
X225446423Y-86600000D03*
X225350909Y-89350910D03*
X225500000Y-101250000D03*
X226000000Y-84000000D03*
%TO.N,/USB_DP*%
X229250000Y-118250000D03*
X230500000Y-118250000D03*
%TO.N,/USB_DN*%
X235728847Y-94144288D03*
X238750000Y-94350000D03*
%TO.N,Net-(U1-TS)*%
X231475000Y-85500000D03*
X228425000Y-86350000D03*
%TO.N,VREGN*%
X232176427Y-82053657D03*
X234108493Y-84108493D03*
%TO.N,/BQ_PG*%
X232100002Y-82850000D03*
X231500000Y-79970851D03*
%TO.N,/SD_DAT0*%
X235725000Y-95002900D03*
X232981066Y-70046752D03*
%TO.N,/RESET*%
X233474199Y-102199661D03*
X227500000Y-94750000D03*
%TO.N,/BTST*%
X234663614Y-88199727D03*
X241325735Y-81825735D03*
X239750000Y-76250000D03*
X237700735Y-84200735D03*
X239029088Y-78025327D03*
X226217158Y-77782842D03*
%TO.N,VSYS*%
X229359998Y-81000000D03*
X239750000Y-88150000D03*
X244000000Y-79500000D03*
X228700000Y-94850000D03*
X232500000Y-93500000D03*
X224900000Y-103750000D03*
%TO.N,Net-(U6-SW)*%
X249200000Y-96900000D03*
X246600000Y-99900000D03*
%TO.N,/SERVO2*%
X227250000Y-98500000D03*
X222000000Y-100250000D03*
%TO.N,Net-(U5-EN)*%
X213892463Y-123142463D03*
X215674996Y-119885001D03*
%TO.N,/SD_DAT2*%
X238425735Y-77500000D03*
X238077777Y-90900000D03*
%TO.N,/SD_DAT3*%
X234158624Y-86539171D03*
X228200000Y-69800000D03*
%TO.N,/SD_CD*%
X235980301Y-82236686D03*
X237000000Y-76500000D03*
%TO.N,Net-(U1-ILIM)*%
X233000000Y-81500000D03*
X234020000Y-79900000D03*
%TO.N,Net-(U1-BTST)*%
X235725000Y-89098029D03*
X232100000Y-80500000D03*
%TO.N,Net-(U6-FB)*%
X242250000Y-89900000D03*
X241750000Y-91500000D03*
%TO.N,/BQ_INT*%
X214250000Y-87750000D03*
X227500000Y-93500000D03*
%TO.N,/I2C_SDA*%
X229408060Y-91908060D03*
X220590000Y-82910000D03*
%TO.N,/BOOT*%
X223500000Y-108000000D03*
X228707314Y-92316711D03*
X222878235Y-105628235D03*
%TO.N,/ICM_CS*%
X229000000Y-97750000D03*
X228000000Y-103000000D03*
X228242500Y-107500000D03*
X229500000Y-104609998D03*
%TO.N,/ICM_SCK*%
X231250000Y-109500000D03*
X229448668Y-99541023D03*
%TO.N,/ICM_SDO*%
X230552179Y-98966185D03*
X232874199Y-105250000D03*
%TO.N,/ICM_SDI*%
X228850000Y-96964188D03*
X228250000Y-104750000D03*
%TO.N,/ICM_INT1*%
X230975000Y-102250000D03*
X232250000Y-102250000D03*
%TO.N,/ICM_INT2*%
X230250000Y-105827502D03*
X231836736Y-104349999D03*
%TO.N,/BMP_INT*%
X226098529Y-88401471D03*
X220500000Y-81000000D03*
%TD*%
%TO.N,Net-(LED1-B)*%
D19*
X221707205Y-66020002D02*
X208700000Y-79027207D01*
X235124921Y-66020002D02*
X221707205Y-66020002D01*
X247050000Y-77945079D02*
X235124921Y-66020002D01*
X246300000Y-97000000D02*
X247050000Y-96250000D01*
X247050000Y-96250000D02*
X247050000Y-77945079D01*
X208700000Y-79027207D02*
X208700000Y-79700000D01*
%TO.N,Net-(LED1-G)*%
X211300000Y-76922182D02*
X211300000Y-78400000D01*
X221852180Y-66370002D02*
X211300000Y-76922182D01*
X246700000Y-78090054D02*
X234979947Y-66370002D01*
X246700000Y-95300000D02*
X246700000Y-78090054D01*
X245600000Y-96400000D02*
X246700000Y-95300000D01*
X234979947Y-66370002D02*
X221852180Y-66370002D01*
%TO.N,Net-(LED1-R)*%
X222279998Y-66720002D02*
X211900000Y-77100000D01*
X246350000Y-78235029D02*
X234834973Y-66720002D01*
X245086091Y-95613909D02*
X246350000Y-94350000D01*
X234834973Y-66720002D02*
X222279998Y-66720002D01*
X246350000Y-94350000D02*
X246350000Y-78235029D01*
%TO.N,Net-(U6-SW)*%
X246600000Y-99500000D02*
X249200000Y-96900000D01*
X246600000Y-99900000D02*
X246600000Y-99500000D01*
%TO.N,Net-(D1-A)*%
X223296474Y-84031474D02*
X222929265Y-83664265D01*
X221487206Y-83664265D02*
X220938235Y-84213236D01*
X222929265Y-83664265D02*
X221487206Y-83664265D01*
X220938235Y-84213236D02*
X220938235Y-86561765D01*
X223296474Y-84891956D02*
X223296474Y-84031474D01*
%TO.N,/SD_CLK*%
X231500000Y-72350000D02*
X231500000Y-69230004D01*
X234780301Y-75630301D02*
X231500000Y-72350000D01*
X234780301Y-85068964D02*
X234780301Y-75630301D01*
X231500000Y-69230004D02*
X231339998Y-69070002D01*
X233175000Y-86674265D02*
X234780301Y-85068964D01*
%TO.N,+3.3V*%
X230426031Y-106500000D02*
X228250000Y-106500000D01*
X231113263Y-105812769D02*
X230426031Y-106500000D01*
X213790116Y-92500000D02*
X213565000Y-92274884D01*
X216000000Y-91500000D02*
X215000000Y-92500000D01*
X224900000Y-76465687D02*
X224900000Y-76748529D01*
X225333934Y-77182463D02*
X228067537Y-77182463D01*
X215000000Y-92500000D02*
X213790116Y-92500000D01*
X224900000Y-76748529D02*
X225333934Y-77182463D01*
%TO.N,/SD_DAT1*%
X244450735Y-95049265D02*
X245549265Y-93950735D01*
X245549265Y-93950735D02*
X245549265Y-91700735D01*
%TO.N,GND*%
X240000000Y-81500000D02*
X240000000Y-86000000D01*
X243500000Y-91490000D02*
X243510000Y-91500000D01*
X234000000Y-78600000D02*
X234000000Y-76500000D01*
X238255000Y-106255000D02*
X238255000Y-106750000D01*
X213000000Y-117500000D02*
X213000000Y-115100000D01*
X236863177Y-82202338D02*
X236863177Y-81525000D01*
X244353430Y-93146570D02*
X244500000Y-93000000D01*
X226471226Y-85036912D02*
X227200000Y-85765686D01*
X219139265Y-80610735D02*
X218500000Y-81250000D01*
X224900000Y-102949997D02*
X226050003Y-102949997D01*
X240000000Y-86000000D02*
X239750000Y-86250000D01*
X229640000Y-107750000D02*
X237250000Y-107750000D01*
X235400000Y-83839999D02*
X236008666Y-83231333D01*
X221500000Y-89250000D02*
X221000000Y-88750000D01*
X218500000Y-122500000D02*
X219000000Y-123000000D01*
X244500000Y-93000000D02*
X244800000Y-92700000D01*
X236008666Y-83231333D02*
X236008666Y-83056849D01*
X213000000Y-115100000D02*
X212900000Y-115000000D01*
X221500000Y-90500000D02*
X221500000Y-89250000D01*
X219000000Y-123000000D02*
X221650000Y-123000000D01*
X243500000Y-82500000D02*
X244000000Y-82500000D01*
X222500000Y-91500000D02*
X223000000Y-91000000D01*
X226640002Y-81500000D02*
X227250000Y-82109998D01*
X240220000Y-93146570D02*
X244353430Y-93146570D01*
X224500000Y-82812960D02*
X224500000Y-81500000D01*
X226050003Y-102949997D02*
X226250000Y-102750000D01*
X222500000Y-92600000D02*
X222500000Y-91500000D01*
X226625903Y-86650000D02*
X226275903Y-86650000D01*
X243500000Y-82500000D02*
X239750000Y-86250000D01*
X244800000Y-87300000D02*
X244325735Y-86825735D01*
X244325735Y-86825735D02*
X243500000Y-87651471D01*
X244000000Y-82500000D02*
X244500000Y-83000000D01*
X236008666Y-83056849D02*
X236863177Y-82202338D01*
X212500000Y-118000000D02*
X213000000Y-117500000D01*
X237000000Y-105000000D02*
X238255000Y-106255000D01*
X227200000Y-85765686D02*
X227200000Y-86075903D01*
X244800000Y-92700000D02*
X244800000Y-87300000D01*
X234000000Y-76500000D02*
X232500000Y-75000000D01*
X224500000Y-81500000D02*
X226640002Y-81500000D01*
X226401136Y-85036912D02*
X226471226Y-85036912D01*
X227200000Y-86075903D02*
X226625903Y-86650000D01*
X237250000Y-107750000D02*
X239500000Y-110000000D01*
X218500000Y-81250000D02*
X217000000Y-81250000D01*
X224598521Y-82911481D02*
X224500000Y-82812960D01*
X224598521Y-82920007D02*
X224598521Y-82911481D01*
X243500000Y-87651471D02*
X243500000Y-91490000D01*
%TO.N,/SD_CMD*%
X232000000Y-68870002D02*
X232000000Y-71750000D01*
X235380301Y-83011171D02*
X235380301Y-81880301D01*
X235180301Y-75569699D02*
X235500000Y-75250000D01*
X235180301Y-81680301D02*
X235180301Y-75569699D01*
X231600000Y-68470002D02*
X229089998Y-68470002D01*
X235500000Y-75250000D02*
X232000000Y-71750000D01*
X235380301Y-81880301D02*
X235180301Y-81680301D01*
X231600000Y-68470002D02*
X232000000Y-68870002D01*
%TO.N,/I2C_SCL*%
X228107314Y-91380393D02*
X228775000Y-90712707D01*
X224821470Y-87350000D02*
X221735735Y-84264265D01*
X228775000Y-90712707D02*
X228775000Y-88209314D01*
X228107314Y-92900000D02*
X228107314Y-91380393D01*
X216296736Y-78203264D02*
X215000000Y-79500000D01*
X227915686Y-87350000D02*
X224821470Y-87350000D01*
X228775000Y-88209314D02*
X227915686Y-87350000D01*
X216296736Y-77951793D02*
X216296736Y-78203264D01*
%TO.N,VBUS*%
X225350909Y-90351776D02*
X225000000Y-90702685D01*
X227850000Y-98900000D02*
X225500000Y-101250000D01*
X224000000Y-84302942D02*
X224000000Y-85153577D01*
X225848529Y-84151471D02*
X226000000Y-84000000D01*
X225446423Y-86600000D02*
X224000000Y-85153577D01*
X224151471Y-84151471D02*
X224000000Y-84302942D01*
X227850000Y-95948529D02*
X227850000Y-98900000D01*
X225350909Y-89350910D02*
X225350909Y-90351776D01*
X225000000Y-93098529D02*
X227850000Y-95948529D01*
X224151471Y-84151471D02*
X225848529Y-84151471D01*
X225000000Y-90702685D02*
X225000000Y-93098529D01*
%TO.N,/USB_DP*%
X230500000Y-118250000D02*
X229250000Y-118250000D01*
%TO.N,/USB_DN*%
X238544288Y-94144288D02*
X238750000Y-94350000D01*
X235728847Y-94144288D02*
X238544288Y-94144288D01*
%TO.N,Net-(U1-TS)*%
X228425000Y-86250000D02*
X228425000Y-86350000D01*
X228000000Y-83750000D02*
X228000000Y-85825000D01*
X231475000Y-85500000D02*
X229725000Y-83750000D01*
X228000000Y-85825000D02*
X228425000Y-86250000D01*
X229725000Y-83750000D02*
X228000000Y-83750000D01*
%TO.N,VREGN*%
X232750000Y-82250000D02*
X232750000Y-82750000D01*
X232553657Y-82053657D02*
X232750000Y-82250000D01*
X232176427Y-82053657D02*
X232553657Y-82053657D01*
X232750000Y-82750000D02*
X234108493Y-84108493D01*
%TO.N,/BQ_PG*%
X232051602Y-82850000D02*
X232100002Y-82850000D01*
X231500000Y-82298398D02*
X232051602Y-82850000D01*
X231500000Y-79970851D02*
X231500000Y-82298398D01*
%TO.N,/SD_DAT0*%
X236991991Y-93400000D02*
X236177376Y-93400000D01*
X235480318Y-93544288D02*
X235128847Y-93895759D01*
X239150000Y-76498529D02*
X239501471Y-76850000D01*
X240174265Y-76674265D02*
X246000000Y-82500000D01*
X232981066Y-70046752D02*
X232889998Y-69955684D01*
X236177376Y-93400000D02*
X236177376Y-93744288D01*
X244000000Y-84500000D02*
X244000000Y-85500000D01*
X239998529Y-76850000D02*
X240174265Y-76674265D01*
X240150000Y-90241992D02*
X236991991Y-93400000D01*
X232889998Y-69955684D02*
X239150000Y-76215686D01*
X235977376Y-93544288D02*
X235480318Y-93544288D01*
X239150000Y-76215686D02*
X239150000Y-76498529D01*
X244000000Y-85500000D02*
X240150000Y-89350000D01*
X235977376Y-94744288D02*
X236177376Y-94544288D01*
X235480318Y-94744288D02*
X235977376Y-94744288D01*
X232889998Y-69800000D02*
X232889998Y-69955684D01*
X235128847Y-93895759D02*
X235128847Y-94392817D01*
X236177376Y-94544288D02*
X236183612Y-94544288D01*
X240150000Y-89350000D02*
X240150000Y-90241992D01*
X246000000Y-82500000D02*
X244000000Y-84500000D01*
X235128847Y-94392817D02*
X235480318Y-94744288D01*
X236183612Y-94544288D02*
X235725000Y-95002900D01*
X239501471Y-76850000D02*
X239998529Y-76850000D01*
X236177376Y-93744288D02*
X235977376Y-93544288D01*
%TO.N,/RESET*%
X227984314Y-95000000D02*
X227500000Y-95000000D01*
X229300000Y-94601471D02*
X228948529Y-94250000D01*
X233474199Y-102199661D02*
X233474199Y-101025801D01*
X233474199Y-101025801D02*
X234750000Y-99750000D01*
X229300000Y-95000000D02*
X229300000Y-94601471D01*
X228948529Y-94250000D02*
X228451471Y-94250000D01*
X232500000Y-96000000D02*
X231500000Y-95000000D01*
X234750000Y-99750000D02*
X234750000Y-99250000D01*
X228100000Y-94884314D02*
X227984314Y-95000000D01*
X234750000Y-99250000D02*
X232500000Y-97000000D01*
X228451471Y-94250000D02*
X228100000Y-94601471D01*
X228100000Y-94601471D02*
X228100000Y-94884314D01*
X232500000Y-97000000D02*
X232500000Y-95958921D01*
X227500000Y-95000000D02*
X227500000Y-94750000D01*
X231500000Y-95000000D02*
X229300000Y-95000000D01*
%TO.N,/BTST*%
X233170002Y-67470002D02*
X228079999Y-67470002D01*
X225450000Y-76237869D02*
X225450000Y-76693505D01*
X233900000Y-70400000D02*
X233900000Y-68200000D01*
X234663614Y-88199727D02*
X234663614Y-87237856D01*
X227619008Y-77582463D02*
X226016779Y-77582463D01*
X228667537Y-76933934D02*
X228667537Y-77430992D01*
X239250000Y-78246239D02*
X239029088Y-78025327D01*
X226016779Y-77582463D02*
X226217158Y-77782842D01*
X234663614Y-87237856D02*
X237700735Y-84200735D01*
X239750000Y-76250000D02*
X233900000Y-70400000D01*
X233900000Y-68200000D02*
X233170002Y-67470002D01*
X225450000Y-76693505D02*
X225394975Y-76748530D01*
X241325735Y-81825735D02*
X239250000Y-79750000D01*
X225300000Y-70250001D02*
X225300000Y-76087869D01*
X225428908Y-76782463D02*
X227619008Y-76782463D01*
X227819008Y-77782463D02*
X227619008Y-77582463D01*
X227819008Y-76582463D02*
X228316066Y-76582463D01*
X228316066Y-76582463D02*
X228667537Y-76933934D01*
X228079999Y-67470002D02*
X225300000Y-70250001D01*
X225300000Y-76087869D02*
X225450000Y-76237869D01*
X239250000Y-79750000D02*
X239250000Y-78246239D01*
X228667537Y-77430992D02*
X228316066Y-77782463D01*
X228316066Y-77782463D02*
X227819008Y-77782463D01*
X227619008Y-76782463D02*
X227819008Y-76582463D01*
X225394975Y-76748530D02*
X225428908Y-76782463D01*
%TO.N,VSYS*%
X224851474Y-103750000D02*
X224300000Y-103198526D01*
X224300000Y-103198526D02*
X224300000Y-102701468D01*
X229359998Y-81000000D02*
X228585786Y-81000000D01*
X224100000Y-70884314D02*
X224242157Y-70742157D01*
X244000000Y-79500000D02*
X234339998Y-69839998D01*
X233000000Y-93000000D02*
X236826306Y-93000000D01*
X228250000Y-99750000D02*
X228250000Y-95300000D01*
X234689998Y-67070002D02*
X227914313Y-67070002D01*
X234339998Y-69100000D02*
X234689998Y-68750000D01*
X225051471Y-101949997D02*
X226050003Y-101949997D01*
X224300000Y-102701468D02*
X225051471Y-101949997D01*
X227914313Y-67070002D02*
X224242157Y-70742157D01*
X234689998Y-68750000D02*
X234689998Y-67070002D01*
X224100000Y-76514214D02*
X224100000Y-70884314D01*
X224900000Y-103750000D02*
X224851474Y-103750000D01*
X228250000Y-95300000D02*
X228700000Y-94850000D01*
X239750000Y-90076306D02*
X239750000Y-88150000D01*
X226050003Y-101949997D02*
X228250000Y-99750000D01*
X228585786Y-81000000D02*
X224100000Y-76514214D01*
X236826306Y-93000000D02*
X239750000Y-90076306D01*
X234339998Y-69839998D02*
X234339998Y-69100000D01*
X224242157Y-70742157D02*
X224139998Y-70844317D01*
X232500000Y-93500000D02*
X233000000Y-93000000D01*
%TO.N,/SERVO2*%
X222000000Y-100250000D02*
X223750000Y-98500000D01*
X223750000Y-98500000D02*
X227250000Y-98500000D01*
%TO.N,Net-(U5-EN)*%
X213892463Y-123142463D02*
X213892463Y-121667534D01*
X213892463Y-121667534D02*
X215674996Y-119885001D01*
%TO.N,/SD_DAT2*%
X238425735Y-84324265D02*
X238425735Y-77500000D01*
X238077777Y-84672223D02*
X238425735Y-84324265D01*
X238077777Y-90900000D02*
X238077777Y-84672223D01*
%TO.N,/SD_DAT3*%
X232350000Y-68725027D02*
X231544975Y-67920002D01*
X236575735Y-76075735D02*
X235900000Y-75400000D01*
X235900000Y-75084314D02*
X232350000Y-71534314D01*
X234158624Y-86539171D02*
X237825735Y-82872060D01*
X232350000Y-71534314D02*
X232350000Y-68725027D01*
X237600000Y-76748529D02*
X237600000Y-76251471D01*
X235900000Y-75400000D02*
X235900000Y-75084314D01*
X237600000Y-76251471D02*
X237248529Y-75900000D01*
X237825735Y-77325735D02*
X237424264Y-76924264D01*
X237825735Y-82872060D02*
X237825735Y-77325735D01*
X228862180Y-67920002D02*
X228200000Y-68582182D01*
X228200000Y-68582182D02*
X228200000Y-69800000D01*
X236751471Y-75900000D02*
X236575735Y-76075735D01*
X231544975Y-67920002D02*
X228862180Y-67920002D01*
X237248529Y-75900000D02*
X236751471Y-75900000D01*
X237424264Y-76924264D02*
X237600000Y-76748529D01*
%TO.N,/SD_CD*%
X235780301Y-77719699D02*
X237000000Y-76500000D01*
X235780301Y-82036686D02*
X235780301Y-77719699D01*
X235980301Y-82236686D02*
X235780301Y-82036686D01*
%TO.N,Net-(U1-ILIM)*%
X233000000Y-81500000D02*
X233000000Y-80920000D01*
X233000000Y-80920000D02*
X234020000Y-79900000D01*
%TO.N,Net-(U1-BTST)*%
X230900000Y-79722322D02*
X230900000Y-84076471D01*
X232575000Y-85751471D02*
X232575000Y-86959642D01*
X232100000Y-79722322D02*
X231748529Y-79370851D01*
X232575000Y-86959642D02*
X234713387Y-89098029D01*
X231748529Y-79370851D02*
X231251471Y-79370851D01*
X234713387Y-89098029D02*
X235725000Y-89098029D01*
X230900000Y-84076471D02*
X232575000Y-85751471D01*
X232100000Y-80500000D02*
X232100000Y-79722322D01*
X231251471Y-79370851D02*
X230900000Y-79722322D01*
%TO.N,Net-(U6-FB)*%
X242250000Y-91000000D02*
X241750000Y-91500000D01*
X242250000Y-89900000D02*
X242250000Y-91000000D01*
%TO.N,/BQ_INT*%
X227325000Y-91000000D02*
X228175000Y-90150000D01*
X227325000Y-93325000D02*
X227325000Y-91000000D01*
X228175000Y-88175000D02*
X227750000Y-87750000D01*
X227500000Y-93500000D02*
X227325000Y-93325000D01*
X227750000Y-87750000D02*
X214250000Y-87750000D01*
X228175000Y-90150000D02*
X228175000Y-88175000D01*
%TO.N,/I2C_SDA*%
X227000000Y-85000000D02*
X227000000Y-82708527D01*
X227600000Y-85990685D02*
X227600000Y-85600000D01*
X225202784Y-83164273D02*
X225000000Y-83367057D01*
X224364273Y-83515744D02*
X224354255Y-83515744D01*
X227825000Y-86598529D02*
X227825000Y-86215686D01*
X227825000Y-86215686D02*
X227600000Y-85990685D01*
X228176471Y-86950000D02*
X227825000Y-86598529D01*
X223410000Y-82910000D02*
X220590000Y-82910000D01*
X229408060Y-91908060D02*
X229408060Y-87408060D01*
X224748529Y-83751471D02*
X224600000Y-83751471D01*
X228950000Y-86950000D02*
X228176471Y-86950000D01*
X225000000Y-83500000D02*
X224748529Y-83751471D01*
X227000000Y-82708527D02*
X226291473Y-82000000D01*
X229408060Y-87408060D02*
X228950000Y-86950000D01*
X225202784Y-82000000D02*
X225202784Y-83164273D01*
X226291473Y-82000000D02*
X225202784Y-82000000D01*
X224238511Y-83400000D02*
X223900000Y-83400000D01*
X227600000Y-85600000D02*
X227000000Y-85000000D01*
X225000000Y-83367057D02*
X225000000Y-83500000D01*
X224354255Y-83515744D02*
X224238511Y-83400000D01*
X224600000Y-83751471D02*
X224364273Y-83515744D01*
X223900000Y-83400000D02*
X223410000Y-82910000D01*
%TO.N,/BOOT*%
X225102380Y-88750910D02*
X224750909Y-89102381D01*
X224750909Y-89102381D02*
X224750909Y-89500000D01*
X227200735Y-94200735D02*
X226725000Y-93725000D01*
X228285785Y-93850000D02*
X227867157Y-94268628D01*
X227251471Y-94150000D02*
X227200735Y-94200735D01*
X222878235Y-105628235D02*
X223500000Y-106250000D01*
X228707314Y-93792686D02*
X228650000Y-93850000D01*
X226348529Y-89500000D02*
X225950909Y-89500000D01*
X223651471Y-89500000D02*
X221400000Y-91751471D01*
X225950909Y-89500000D02*
X225950909Y-89102381D01*
X221400000Y-104150000D02*
X223500000Y-106250000D01*
X225950909Y-89102381D02*
X225599438Y-88750910D01*
X226725000Y-89876471D02*
X226348529Y-89500000D01*
X226725000Y-93725000D02*
X226725000Y-89876471D01*
X225599438Y-88750910D02*
X225102380Y-88750910D01*
X227748529Y-94150000D02*
X227251471Y-94150000D01*
X223500000Y-106250000D02*
X223500000Y-108000000D01*
X228707314Y-92316711D02*
X228707314Y-93792686D01*
X224750909Y-89500000D02*
X223651471Y-89500000D01*
X228650000Y-93850000D02*
X228285785Y-93850000D01*
X227867157Y-94268628D02*
X227748529Y-94150000D01*
X221400000Y-91751471D02*
X221400000Y-104150000D01*
%TO.N,/ICM_CS*%
X229000000Y-99141162D02*
X228848668Y-99292494D01*
X229000000Y-102000000D02*
X228000000Y-103000000D01*
X228848668Y-99292494D02*
X228848668Y-99789552D01*
X229000000Y-97750000D02*
X229000000Y-99141162D01*
X229000000Y-99940884D02*
X229000000Y-102000000D01*
X228848668Y-99789552D02*
X229000000Y-99940884D01*
X227650000Y-106907500D02*
X227650000Y-106251471D01*
X229291473Y-104609998D02*
X229500000Y-104609998D01*
X227650000Y-106251471D02*
X229291473Y-104609998D01*
X228242500Y-107500000D02*
X227650000Y-106907500D01*
%TO.N,/ICM_SCK*%
X231250000Y-109500000D02*
X229393971Y-109500000D01*
X227250000Y-104598529D02*
X229448668Y-102399861D01*
X229393971Y-109500000D02*
X227250000Y-107356029D01*
X229448668Y-102399861D02*
X229448668Y-99541023D01*
X227250000Y-107356029D02*
X227250000Y-104598529D01*
%TO.N,/ICM_SDO*%
X231750000Y-100204812D02*
X232874199Y-101329011D01*
X230552179Y-98966185D02*
X231750000Y-100164006D01*
X231750000Y-100164006D02*
X231750000Y-100204812D01*
X232874199Y-101329011D02*
X232874199Y-105250000D01*
%TO.N,/ICM_SDI*%
X229848668Y-103151332D02*
X228250000Y-104750000D01*
X229035812Y-97150000D02*
X229248529Y-97150000D01*
X229248529Y-97150000D02*
X229600000Y-97501471D01*
X230048668Y-99789552D02*
X229848668Y-99989553D01*
X229697197Y-98941023D02*
X230048668Y-99292494D01*
X228850000Y-96964188D02*
X229035812Y-97150000D01*
X230048668Y-99292494D02*
X230048668Y-99789552D01*
X229848668Y-99989553D02*
X229848668Y-103151332D01*
X229600000Y-97501471D02*
X229600000Y-98941023D01*
X229600000Y-98941023D02*
X229697197Y-98941023D01*
%TO.N,/ICM_INT1*%
X232250000Y-102250000D02*
X230975000Y-102250000D01*
%TO.N,/ICM_INT2*%
X230250000Y-105827502D02*
X231727503Y-104349999D01*
X231727503Y-104349999D02*
X231836736Y-104349999D01*
%TO.N,/BMP_INT*%
X213650000Y-87350000D02*
X220000000Y-81000000D01*
X213650000Y-87998529D02*
X213650000Y-87350000D01*
X214698529Y-88150000D02*
X214498529Y-88350000D01*
X214001471Y-88350000D02*
X213650000Y-87998529D01*
X214498529Y-88350000D02*
X214001471Y-88350000D01*
X220000000Y-81000000D02*
X220500000Y-81000000D01*
X225847058Y-88150000D02*
X214698529Y-88150000D01*
X226098529Y-88401471D02*
X225847058Y-88150000D01*
%TD*%
%TA.AperFunction,Conductor*%
%TO.N,GND*%
G36*
X224464706Y-90103765D02*
G01*
X224476236Y-90102586D01*
X224497623Y-90113430D01*
X224520626Y-90120185D01*
X224528214Y-90128942D01*
X224538552Y-90134184D01*
X224550682Y-90154871D01*
X224566381Y-90172989D01*
X224568030Y-90184457D01*
X224573893Y-90194457D01*
X224572912Y-90218416D01*
X224576325Y-90242147D01*
X224571510Y-90252688D01*
X224571037Y-90264268D01*
X224555075Y-90295747D01*
X224548885Y-90304563D01*
X224519480Y-90333969D01*
X224481647Y-90399499D01*
X224478912Y-90404235D01*
X224478905Y-90404246D01*
X224440423Y-90470899D01*
X224427048Y-90520814D01*
X224415092Y-90565437D01*
X224399499Y-90623629D01*
X224399499Y-90791731D01*
X224399500Y-90791744D01*
X224399500Y-93011859D01*
X224399499Y-93011877D01*
X224399499Y-93177583D01*
X224399498Y-93177583D01*
X224440423Y-93330314D01*
X224451924Y-93350234D01*
X224519477Y-93467241D01*
X224519481Y-93467246D01*
X224638349Y-93586114D01*
X224638355Y-93586119D01*
X227213181Y-96160945D01*
X227246666Y-96222268D01*
X227249500Y-96248626D01*
X227249500Y-97582152D01*
X227229815Y-97649191D01*
X227177011Y-97694946D01*
X227149692Y-97703769D01*
X227016508Y-97730261D01*
X227016498Y-97730264D01*
X226870827Y-97790602D01*
X226870814Y-97790609D01*
X226739125Y-97878602D01*
X226672447Y-97899480D01*
X226670234Y-97899500D01*
X223836670Y-97899500D01*
X223836654Y-97899499D01*
X223829058Y-97899499D01*
X223670943Y-97899499D01*
X223594579Y-97919961D01*
X223518214Y-97940423D01*
X223518209Y-97940426D01*
X223381290Y-98019475D01*
X223381282Y-98019481D01*
X222212181Y-99188583D01*
X222150858Y-99222068D01*
X222081166Y-99217084D01*
X222025233Y-99175212D01*
X222000816Y-99109748D01*
X222000500Y-99100902D01*
X222000500Y-92051568D01*
X222020185Y-91984529D01*
X222036819Y-91963887D01*
X223863887Y-90136819D01*
X223925210Y-90103334D01*
X223951568Y-90100500D01*
X224453587Y-90100500D01*
X224464706Y-90103765D01*
G37*
%TD.AperFunction*%
%TA.AperFunction,Conductor*%
G36*
X240116942Y-77470185D02*
G01*
X240137584Y-77486819D01*
X245063083Y-82412318D01*
X245096568Y-82473641D01*
X245091584Y-82543333D01*
X245063083Y-82587680D01*
X243631286Y-84019478D01*
X243519481Y-84131282D01*
X243519479Y-84131285D01*
X243517807Y-84134181D01*
X243479694Y-84200196D01*
X243440423Y-84268215D01*
X243399499Y-84420943D01*
X243399499Y-84420945D01*
X243399499Y-84589046D01*
X243399500Y-84589059D01*
X243399500Y-85199903D01*
X243379815Y-85266942D01*
X243363181Y-85287584D01*
X240713794Y-87936970D01*
X240652471Y-87970455D01*
X240582779Y-87965471D01*
X240526846Y-87923599D01*
X240511552Y-87896741D01*
X240459397Y-87770827D01*
X240459390Y-87770814D01*
X240371789Y-87639711D01*
X240371786Y-87639707D01*
X240260292Y-87528213D01*
X240260288Y-87528210D01*
X240129185Y-87440609D01*
X240129172Y-87440602D01*
X239983501Y-87380264D01*
X239983489Y-87380261D01*
X239828845Y-87349500D01*
X239828842Y-87349500D01*
X239671158Y-87349500D01*
X239671155Y-87349500D01*
X239516510Y-87380261D01*
X239516498Y-87380264D01*
X239370827Y-87440602D01*
X239370814Y-87440609D01*
X239239711Y-87528210D01*
X239239707Y-87528213D01*
X239128213Y-87639707D01*
X239128210Y-87639711D01*
X239040609Y-87770814D01*
X239040602Y-87770827D01*
X238980264Y-87916498D01*
X238980261Y-87916510D01*
X238949500Y-88071153D01*
X238949500Y-88228846D01*
X238980261Y-88383489D01*
X238980264Y-88383501D01*
X239040602Y-88529172D01*
X239040609Y-88529185D01*
X239128602Y-88660874D01*
X239149480Y-88727551D01*
X239149500Y-88729765D01*
X239149500Y-89776208D01*
X239129815Y-89843247D01*
X239113181Y-89863889D01*
X238889958Y-90087112D01*
X238828635Y-90120597D01*
X238758943Y-90115613D01*
X238703010Y-90073741D01*
X238678593Y-90008277D01*
X238678277Y-89999431D01*
X238678277Y-84972320D01*
X238697962Y-84905281D01*
X238714592Y-84884642D01*
X238784241Y-84814992D01*
X238784245Y-84814990D01*
X238794449Y-84804785D01*
X238794451Y-84804785D01*
X238906255Y-84692981D01*
X238966281Y-84589012D01*
X238985312Y-84556050D01*
X239026236Y-84403322D01*
X239026236Y-84245208D01*
X239026236Y-84237613D01*
X239026235Y-84237595D01*
X239026235Y-80674832D01*
X239045920Y-80607793D01*
X239098724Y-80562038D01*
X239167882Y-80552094D01*
X239231438Y-80581119D01*
X239237916Y-80587151D01*
X240491160Y-81840395D01*
X240524645Y-81901718D01*
X240525096Y-81903884D01*
X240555996Y-82059226D01*
X240555999Y-82059236D01*
X240616337Y-82204907D01*
X240616344Y-82204920D01*
X240703945Y-82336023D01*
X240703948Y-82336027D01*
X240815442Y-82447521D01*
X240815446Y-82447524D01*
X240946549Y-82535125D01*
X240946562Y-82535132D01*
X241073426Y-82587680D01*
X241092238Y-82595472D01*
X241209083Y-82618714D01*
X241246888Y-82626234D01*
X241246891Y-82626235D01*
X241246893Y-82626235D01*
X241404579Y-82626235D01*
X241404580Y-82626234D01*
X241559232Y-82595472D01*
X241685108Y-82543333D01*
X241704907Y-82535132D01*
X241704907Y-82535131D01*
X241704914Y-82535129D01*
X241836024Y-82447524D01*
X241947524Y-82336024D01*
X242035129Y-82204914D01*
X242036914Y-82200606D01*
X242095470Y-82059236D01*
X242095472Y-82059232D01*
X242126235Y-81904577D01*
X242126235Y-81746893D01*
X242126235Y-81746890D01*
X242126234Y-81746888D01*
X242119884Y-81714964D01*
X242095472Y-81592238D01*
X242089724Y-81578360D01*
X242035132Y-81446562D01*
X242035125Y-81446549D01*
X241947524Y-81315446D01*
X241947521Y-81315442D01*
X241836027Y-81203948D01*
X241836023Y-81203945D01*
X241704920Y-81116344D01*
X241704907Y-81116337D01*
X241559236Y-81055999D01*
X241559226Y-81055996D01*
X241403886Y-81025097D01*
X241341976Y-80992712D01*
X241340397Y-80991161D01*
X239886819Y-79537583D01*
X239853334Y-79476260D01*
X239850500Y-79449902D01*
X239850500Y-78335299D01*
X239850501Y-78335286D01*
X239850501Y-78167183D01*
X239850501Y-78167182D01*
X239833813Y-78104901D01*
X239829588Y-78072808D01*
X239829588Y-77946482D01*
X239829587Y-77946480D01*
X239822666Y-77911688D01*
X239798825Y-77791830D01*
X239798823Y-77791825D01*
X239738485Y-77646154D01*
X239738478Y-77646141D01*
X239736643Y-77643395D01*
X239736123Y-77641734D01*
X239735609Y-77640773D01*
X239735791Y-77640675D01*
X239733604Y-77633693D01*
X239726948Y-77626011D01*
X239723339Y-77600915D01*
X239715762Y-77576719D01*
X239718450Y-77566915D01*
X239717004Y-77556853D01*
X239727537Y-77533787D01*
X239734244Y-77509338D01*
X239741805Y-77502544D01*
X239746029Y-77493297D01*
X239767358Y-77479589D01*
X239786220Y-77462645D01*
X239797821Y-77460012D01*
X239804807Y-77455523D01*
X239839742Y-77450500D01*
X239919470Y-77450500D01*
X240049905Y-77450500D01*
X240116942Y-77470185D01*
G37*
%TD.AperFunction*%
%TA.AperFunction,Conductor*%
G36*
X225707122Y-84753597D02*
G01*
X225712201Y-84752681D01*
X225746399Y-84761410D01*
X225763507Y-84768496D01*
X225766503Y-84769737D01*
X225882659Y-84792842D01*
X225921153Y-84800499D01*
X225921156Y-84800500D01*
X225921158Y-84800500D01*
X226078844Y-84800500D01*
X226078845Y-84800499D01*
X226233497Y-84769737D01*
X226233509Y-84769731D01*
X226239324Y-84767969D01*
X226240158Y-84770720D01*
X226260601Y-84768496D01*
X226293147Y-84763817D01*
X226295159Y-84764736D01*
X226297359Y-84764497D01*
X226326779Y-84779176D01*
X226356703Y-84792842D01*
X226357899Y-84794703D01*
X226359878Y-84795691D01*
X226376687Y-84823938D01*
X226394477Y-84851620D01*
X226394896Y-84854538D01*
X226395608Y-84855734D01*
X226399500Y-84886555D01*
X226399500Y-84913330D01*
X226399499Y-84913348D01*
X226399499Y-85079054D01*
X226399498Y-85079054D01*
X226399499Y-85079057D01*
X226440423Y-85231785D01*
X226464466Y-85273428D01*
X226469358Y-85281900D01*
X226469359Y-85281904D01*
X226469360Y-85281904D01*
X226519479Y-85368714D01*
X226519481Y-85368717D01*
X226638349Y-85487585D01*
X226638355Y-85487590D01*
X226963181Y-85812416D01*
X226977884Y-85839343D01*
X226994477Y-85865162D01*
X226995368Y-85871362D01*
X226996666Y-85873739D01*
X226999500Y-85900097D01*
X226999500Y-85911626D01*
X226999499Y-86069740D01*
X226999499Y-86069743D01*
X227020226Y-86147093D01*
X227020226Y-86147095D01*
X227020227Y-86147095D01*
X227040423Y-86222470D01*
X227040426Y-86222475D01*
X227119475Y-86359394D01*
X227119481Y-86359402D01*
X227188180Y-86428101D01*
X227202883Y-86455028D01*
X227219476Y-86480847D01*
X227220367Y-86487047D01*
X227221665Y-86489424D01*
X227224499Y-86515782D01*
X227224499Y-86625500D01*
X227204814Y-86692539D01*
X227152010Y-86738294D01*
X227100499Y-86749500D01*
X226370923Y-86749500D01*
X226303884Y-86729815D01*
X226258129Y-86677011D01*
X226246923Y-86625500D01*
X226246923Y-86521155D01*
X226246922Y-86521153D01*
X226240138Y-86487047D01*
X226216160Y-86366503D01*
X226188821Y-86300500D01*
X226155820Y-86220827D01*
X226155813Y-86220814D01*
X226068212Y-86089711D01*
X226068209Y-86089707D01*
X225956715Y-85978213D01*
X225956711Y-85978210D01*
X225825608Y-85890609D01*
X225825595Y-85890602D01*
X225679924Y-85830264D01*
X225679914Y-85830261D01*
X225524572Y-85799361D01*
X225462661Y-85766976D01*
X225461083Y-85765425D01*
X224659310Y-84963652D01*
X224625825Y-84902329D01*
X224630809Y-84832637D01*
X224672681Y-84776704D01*
X224738145Y-84752287D01*
X224746991Y-84751971D01*
X225698947Y-84751971D01*
X225707122Y-84753597D01*
G37*
%TD.AperFunction*%
%TA.AperFunction,Conductor*%
G36*
X235957304Y-83675563D02*
G01*
X236003994Y-83727541D01*
X236015171Y-83796511D01*
X235987286Y-83860575D01*
X235979819Y-83868740D01*
X235592482Y-84256078D01*
X235531159Y-84289563D01*
X235461468Y-84284579D01*
X235405534Y-84242708D01*
X235381117Y-84177243D01*
X235380801Y-84168397D01*
X235380801Y-83929018D01*
X235400486Y-83861979D01*
X235453290Y-83816224D01*
X235480610Y-83807401D01*
X235504087Y-83802731D01*
X235613798Y-83780908D01*
X235730145Y-83732716D01*
X235759473Y-83720568D01*
X235759473Y-83720567D01*
X235759480Y-83720565D01*
X235823248Y-83677956D01*
X235889924Y-83657079D01*
X235957304Y-83675563D01*
G37*
%TD.AperFunction*%
%TA.AperFunction,Conductor*%
G36*
X237043332Y-77408414D02*
G01*
X237087678Y-77436913D01*
X237113410Y-77462645D01*
X237188916Y-77538151D01*
X237222401Y-77599474D01*
X237225235Y-77625832D01*
X237225235Y-82571963D01*
X237205550Y-82639002D01*
X237188916Y-82659644D01*
X236237870Y-83610689D01*
X236176547Y-83644174D01*
X236106855Y-83639190D01*
X236050922Y-83597318D01*
X236026505Y-83531854D01*
X236041357Y-83463581D01*
X236047078Y-83454129D01*
X236089695Y-83390350D01*
X236150038Y-83244668D01*
X236168968Y-83149500D01*
X236181990Y-83084039D01*
X236183428Y-83084325D01*
X236206843Y-83026311D01*
X236256646Y-82988675D01*
X236359473Y-82946083D01*
X236359473Y-82946082D01*
X236359480Y-82946080D01*
X236490590Y-82858475D01*
X236602090Y-82746975D01*
X236689695Y-82615865D01*
X236750038Y-82470183D01*
X236780801Y-82315528D01*
X236780801Y-82157844D01*
X236780801Y-82157841D01*
X236780800Y-82157839D01*
X236777304Y-82140263D01*
X236750038Y-82003189D01*
X236708008Y-81901718D01*
X236689698Y-81857513D01*
X236689691Y-81857500D01*
X236602090Y-81726397D01*
X236602087Y-81726393D01*
X236490593Y-81614899D01*
X236435909Y-81578360D01*
X236391105Y-81524747D01*
X236380801Y-81475258D01*
X236380801Y-78019795D01*
X236400486Y-77952756D01*
X236417116Y-77932118D01*
X236912320Y-77436913D01*
X236973641Y-77403430D01*
X237043332Y-77408414D01*
G37*
%TD.AperFunction*%
%TA.AperFunction,Conductor*%
G36*
X227518834Y-68982916D02*
G01*
X227574767Y-69024788D01*
X227599184Y-69090252D01*
X227599500Y-69099098D01*
X227599500Y-69220234D01*
X227579815Y-69287273D01*
X227578602Y-69289125D01*
X227490609Y-69420814D01*
X227490602Y-69420827D01*
X227430264Y-69566498D01*
X227430261Y-69566510D01*
X227399500Y-69721153D01*
X227399500Y-69878846D01*
X227430261Y-70033489D01*
X227430264Y-70033501D01*
X227490602Y-70179172D01*
X227490609Y-70179185D01*
X227578210Y-70310288D01*
X227578213Y-70310292D01*
X227689707Y-70421786D01*
X227689711Y-70421789D01*
X227820814Y-70509390D01*
X227820827Y-70509397D01*
X227966498Y-70569735D01*
X227966503Y-70569737D01*
X228121153Y-70600499D01*
X228121156Y-70600500D01*
X228121158Y-70600500D01*
X228278844Y-70600500D01*
X228278845Y-70600499D01*
X228433497Y-70569737D01*
X228579179Y-70509394D01*
X228710289Y-70421789D01*
X228821789Y-70310289D01*
X228909394Y-70179179D01*
X228969737Y-70033497D01*
X229000500Y-69878842D01*
X229000500Y-69721158D01*
X229000500Y-69721155D01*
X229000499Y-69721153D01*
X228996609Y-69701598D01*
X228969737Y-69566503D01*
X228951318Y-69522035D01*
X228918148Y-69441954D01*
X228910679Y-69372485D01*
X228941954Y-69310006D01*
X229002044Y-69274354D01*
X229032709Y-69270502D01*
X229168842Y-69270502D01*
X229168843Y-69270501D01*
X229323495Y-69239739D01*
X229469177Y-69179396D01*
X229482775Y-69170310D01*
X229600873Y-69091400D01*
X229667551Y-69070522D01*
X229669764Y-69070502D01*
X230422150Y-69070502D01*
X230489189Y-69090187D01*
X230534944Y-69142991D01*
X230543767Y-69170310D01*
X230570259Y-69303493D01*
X230570262Y-69303503D01*
X230630600Y-69449174D01*
X230630607Y-69449187D01*
X230718208Y-69580290D01*
X230718211Y-69580294D01*
X230829703Y-69691786D01*
X230829705Y-69691787D01*
X230829709Y-69691791D01*
X230844389Y-69701600D01*
X230889194Y-69755209D01*
X230899500Y-69804702D01*
X230899500Y-72263330D01*
X230899499Y-72263348D01*
X230899499Y-72429054D01*
X230899498Y-72429054D01*
X230940423Y-72581785D01*
X230969358Y-72631900D01*
X230969359Y-72631904D01*
X230969360Y-72631904D01*
X231019479Y-72718714D01*
X231019481Y-72718717D01*
X231138349Y-72837585D01*
X231138355Y-72837590D01*
X234143482Y-75842717D01*
X234176967Y-75904040D01*
X234179801Y-75930398D01*
X234179801Y-78975500D01*
X234160116Y-79042539D01*
X234107312Y-79088294D01*
X234055801Y-79099500D01*
X233941155Y-79099500D01*
X233786510Y-79130261D01*
X233786498Y-79130264D01*
X233640827Y-79190602D01*
X233640814Y-79190609D01*
X233509711Y-79278210D01*
X233509707Y-79278213D01*
X233398213Y-79389707D01*
X233398210Y-79389711D01*
X233310609Y-79520814D01*
X233310602Y-79520827D01*
X233250264Y-79666498D01*
X233250261Y-79666508D01*
X233219361Y-79821850D01*
X233186976Y-79883761D01*
X233185425Y-79885339D01*
X232972530Y-80098234D01*
X232954038Y-80108330D01*
X232938365Y-80122410D01*
X232923988Y-80124739D01*
X232911207Y-80131719D01*
X232890191Y-80130216D01*
X232869395Y-80133586D01*
X232856042Y-80127773D01*
X232841515Y-80126735D01*
X232824647Y-80114107D01*
X232805332Y-80105700D01*
X232788734Y-80087223D01*
X232785582Y-80084863D01*
X232781747Y-80079444D01*
X232721398Y-79989125D01*
X232700520Y-79922447D01*
X232700500Y-79920234D01*
X232700500Y-79643267D01*
X232700500Y-79643265D01*
X232670495Y-79531284D01*
X232659577Y-79490537D01*
X232619521Y-79421158D01*
X232619521Y-79421157D01*
X232580524Y-79353612D01*
X232580521Y-79353608D01*
X232580520Y-79353606D01*
X232468716Y-79241802D01*
X232468715Y-79241801D01*
X232464385Y-79237471D01*
X232464374Y-79237461D01*
X232236119Y-79009206D01*
X232236117Y-79009203D01*
X232117246Y-78890332D01*
X232117238Y-78890326D01*
X232005521Y-78825827D01*
X232005520Y-78825826D01*
X231987802Y-78815597D01*
X231980314Y-78811274D01*
X231827586Y-78770350D01*
X231669472Y-78770350D01*
X231661876Y-78770350D01*
X231661860Y-78770351D01*
X231172414Y-78770351D01*
X231019685Y-78811274D01*
X230994480Y-78825827D01*
X230994479Y-78825827D01*
X230882758Y-78890328D01*
X230882753Y-78890332D01*
X230419481Y-79353604D01*
X230419475Y-79353612D01*
X230380479Y-79421157D01*
X230380479Y-79421158D01*
X230340423Y-79490537D01*
X230299499Y-79643265D01*
X230299499Y-79643267D01*
X230299499Y-79811368D01*
X230299500Y-79811381D01*
X230299500Y-80556427D01*
X230279815Y-80623466D01*
X230227011Y-80669221D01*
X230157853Y-80679165D01*
X230094297Y-80650140D01*
X230072398Y-80625318D01*
X229981787Y-80489711D01*
X229981784Y-80489707D01*
X229870290Y-80378213D01*
X229870286Y-80378210D01*
X229739183Y-80290609D01*
X229739170Y-80290602D01*
X229593499Y-80230264D01*
X229593487Y-80230261D01*
X229438843Y-80199500D01*
X229438840Y-80199500D01*
X229281156Y-80199500D01*
X229281153Y-80199500D01*
X229126508Y-80230261D01*
X229126496Y-80230264D01*
X228980825Y-80290602D01*
X228980812Y-80290609D01*
X228912456Y-80336284D01*
X228845778Y-80357162D01*
X228778398Y-80338677D01*
X228755884Y-80320863D01*
X226866527Y-78431506D01*
X226851313Y-78403645D01*
X226834627Y-78376632D01*
X226834688Y-78373197D01*
X226833042Y-78370183D01*
X226835306Y-78338512D01*
X226835873Y-78306773D01*
X226837876Y-78302585D01*
X226838026Y-78300491D01*
X226851105Y-78274935D01*
X226875736Y-78238071D01*
X226929347Y-78193268D01*
X226978838Y-78182963D01*
X227318910Y-78182963D01*
X227385949Y-78202648D01*
X227406591Y-78219282D01*
X227450292Y-78262983D01*
X227450294Y-78262984D01*
X227450298Y-78262987D01*
X227587217Y-78342036D01*
X227587220Y-78342038D01*
X227587224Y-78342040D01*
X227739951Y-78382964D01*
X227739953Y-78382964D01*
X227905662Y-78382964D01*
X227905678Y-78382963D01*
X228229397Y-78382963D01*
X228229413Y-78382964D01*
X228237009Y-78382964D01*
X228395120Y-78382964D01*
X228395123Y-78382964D01*
X228547851Y-78342040D01*
X228619800Y-78300500D01*
X228684782Y-78262983D01*
X228796586Y-78151179D01*
X228796586Y-78151177D01*
X228806790Y-78140974D01*
X228806794Y-78140969D01*
X229026043Y-77921720D01*
X229026048Y-77921716D01*
X229036251Y-77911512D01*
X229036253Y-77911512D01*
X229148057Y-77799708D01*
X229203438Y-77703785D01*
X229227114Y-77662777D01*
X229268037Y-77510049D01*
X229268037Y-77351935D01*
X229268037Y-76854877D01*
X229254213Y-76803284D01*
X229227114Y-76702149D01*
X229188525Y-76635311D01*
X229148057Y-76565218D01*
X229036253Y-76453414D01*
X229036252Y-76453413D01*
X229031922Y-76449083D01*
X229031911Y-76449073D01*
X228803656Y-76220818D01*
X228803654Y-76220815D01*
X228684783Y-76101944D01*
X228684782Y-76101943D01*
X228595191Y-76050218D01*
X228595190Y-76050217D01*
X228547856Y-76022888D01*
X228547855Y-76022887D01*
X228535329Y-76019530D01*
X228395123Y-75981962D01*
X228237009Y-75981962D01*
X228229413Y-75981962D01*
X228229397Y-75981963D01*
X227905678Y-75981963D01*
X227905662Y-75981962D01*
X227898066Y-75981962D01*
X227739951Y-75981962D01*
X227663587Y-76002424D01*
X227587222Y-76022886D01*
X227587217Y-76022889D01*
X227450298Y-76101938D01*
X227450290Y-76101944D01*
X227406591Y-76145644D01*
X227345268Y-76179129D01*
X227318910Y-76181963D01*
X226151852Y-76181963D01*
X226131500Y-76175986D01*
X226110319Y-76174801D01*
X226098643Y-76166339D01*
X226084813Y-76162278D01*
X226070924Y-76146249D01*
X226053745Y-76133799D01*
X226045215Y-76116580D01*
X226039058Y-76109474D01*
X226036354Y-76103087D01*
X226033856Y-76096693D01*
X226009577Y-76006084D01*
X225979874Y-75954637D01*
X225975179Y-75946505D01*
X225975178Y-75946502D01*
X225930524Y-75869159D01*
X225930521Y-75869156D01*
X225930520Y-75869153D01*
X225930517Y-75869150D01*
X225926125Y-75863426D01*
X225900930Y-75798257D01*
X225900500Y-75787938D01*
X225900500Y-70550098D01*
X225920185Y-70483059D01*
X225936819Y-70462417D01*
X227387819Y-69011417D01*
X227449142Y-68977932D01*
X227518834Y-68982916D01*
G37*
%TD.AperFunction*%
%TA.AperFunction,Conductor*%
G36*
X243325647Y-58019249D02*
G01*
X243862400Y-58036820D01*
X243870479Y-58037350D01*
X244402918Y-58089790D01*
X244410909Y-58090842D01*
X244938800Y-58177997D01*
X244946709Y-58179570D01*
X245467760Y-58301062D01*
X245475572Y-58303155D01*
X245880164Y-58425887D01*
X245987541Y-58458460D01*
X245995225Y-58461069D01*
X246495913Y-58649515D01*
X246503406Y-58652619D01*
X246990719Y-58873416D01*
X246997972Y-58876993D01*
X247164900Y-58966218D01*
X247469800Y-59129191D01*
X247476827Y-59133248D01*
X247931136Y-59415756D01*
X247937883Y-59420264D01*
X248372746Y-59731882D01*
X248379184Y-59736822D01*
X248792738Y-60076216D01*
X248798838Y-60081566D01*
X249189314Y-60447287D01*
X249195026Y-60452999D01*
X249519838Y-60799797D01*
X249560747Y-60843475D01*
X249566097Y-60849575D01*
X249905491Y-61263129D01*
X249910431Y-61269567D01*
X250222049Y-61704430D01*
X250226557Y-61711177D01*
X250509065Y-62165486D01*
X250513122Y-62172513D01*
X250765314Y-62644329D01*
X250768903Y-62651607D01*
X250989693Y-63138904D01*
X250992798Y-63146400D01*
X251181244Y-63647088D01*
X251183853Y-63654772D01*
X251339155Y-64166732D01*
X251341255Y-64174569D01*
X251462737Y-64695576D01*
X251464320Y-64703535D01*
X251551467Y-65231377D01*
X251552526Y-65239422D01*
X251604962Y-65771825D01*
X251605493Y-65779922D01*
X251623065Y-66316666D01*
X251623131Y-66320723D01*
X251623131Y-117447959D01*
X251623065Y-117452016D01*
X251605493Y-117988760D01*
X251604962Y-117996857D01*
X251552526Y-118529260D01*
X251551467Y-118537305D01*
X251464320Y-119065147D01*
X251462737Y-119073106D01*
X251341255Y-119594113D01*
X251339155Y-119601950D01*
X251183853Y-120113910D01*
X251181244Y-120121594D01*
X250992798Y-120622282D01*
X250989693Y-120629778D01*
X250768903Y-121117075D01*
X250765314Y-121124353D01*
X250513122Y-121596169D01*
X250509065Y-121603196D01*
X250226557Y-122057505D01*
X250222049Y-122064252D01*
X249910431Y-122499115D01*
X249905491Y-122505553D01*
X249566097Y-122919107D01*
X249560747Y-122925207D01*
X249195039Y-123315670D01*
X249189301Y-123321408D01*
X248798838Y-123687116D01*
X248792738Y-123692466D01*
X248379184Y-124031860D01*
X248372746Y-124036800D01*
X247937883Y-124348418D01*
X247931136Y-124352926D01*
X247476827Y-124635434D01*
X247469800Y-124639491D01*
X246997984Y-124891683D01*
X246990706Y-124895272D01*
X246503409Y-125116062D01*
X246495913Y-125119167D01*
X245995225Y-125307613D01*
X245987541Y-125310222D01*
X245475581Y-125465524D01*
X245467744Y-125467624D01*
X244946737Y-125589106D01*
X244938778Y-125590689D01*
X244410936Y-125677836D01*
X244402891Y-125678895D01*
X243870488Y-125731331D01*
X243862391Y-125731862D01*
X243325647Y-125749434D01*
X243321590Y-125749500D01*
X234863565Y-125749500D01*
X234796526Y-125729815D01*
X234750771Y-125677011D01*
X234740827Y-125607853D01*
X234760463Y-125556610D01*
X234823259Y-125462627D01*
X234887334Y-125307936D01*
X234887336Y-125307928D01*
X234919999Y-125143722D01*
X234920000Y-125143720D01*
X234920000Y-124910000D01*
X234369999Y-124910000D01*
X234369999Y-124610000D01*
X234920000Y-124610000D01*
X234920000Y-124376279D01*
X234919999Y-124376277D01*
X234887336Y-124212071D01*
X234887334Y-124212063D01*
X234823259Y-124057372D01*
X234823259Y-124057371D01*
X234730241Y-123918160D01*
X234730235Y-123918152D01*
X234611847Y-123799764D01*
X234611839Y-123799758D01*
X234472628Y-123706740D01*
X234317936Y-123642665D01*
X234317928Y-123642663D01*
X234220000Y-123623183D01*
X234220000Y-124200193D01*
X234185795Y-124180445D01*
X234109496Y-124160001D01*
X234030504Y-124160001D01*
X233954205Y-124180445D01*
X233920000Y-124200193D01*
X233920000Y-123623184D01*
X233919999Y-123623183D01*
X233822071Y-123642663D01*
X233822063Y-123642665D01*
X233667372Y-123706740D01*
X233667371Y-123706740D01*
X233528160Y-123799758D01*
X233528152Y-123799764D01*
X233409764Y-123918152D01*
X233409758Y-123918160D01*
X233316740Y-124057371D01*
X233316740Y-124057372D01*
X233252665Y-124212063D01*
X233252663Y-124212071D01*
X233220000Y-124376277D01*
X233220000Y-124610000D01*
X233770001Y-124610000D01*
X233770001Y-124910000D01*
X233220000Y-124910000D01*
X233220000Y-125143722D01*
X233252663Y-125307928D01*
X233252665Y-125307936D01*
X233316740Y-125462627D01*
X233379537Y-125556610D01*
X233400415Y-125623287D01*
X233381930Y-125690667D01*
X233329951Y-125737357D01*
X233276435Y-125749500D01*
X226223565Y-125749500D01*
X226156526Y-125729815D01*
X226110771Y-125677011D01*
X226100827Y-125607853D01*
X226120463Y-125556610D01*
X226183259Y-125462627D01*
X226247334Y-125307936D01*
X226247336Y-125307928D01*
X226279999Y-125143722D01*
X226280000Y-125143720D01*
X226280000Y-124910000D01*
X225729999Y-124910000D01*
X225729999Y-124610000D01*
X226280000Y-124610000D01*
X226280000Y-124376279D01*
X226279999Y-124376277D01*
X226247336Y-124212071D01*
X226247334Y-124212063D01*
X226183259Y-124057372D01*
X226183259Y-124057371D01*
X226090241Y-123918160D01*
X226090235Y-123918152D01*
X225971847Y-123799764D01*
X225971839Y-123799758D01*
X225832628Y-123706740D01*
X225677936Y-123642665D01*
X225677928Y-123642663D01*
X225580000Y-123623183D01*
X225580000Y-124200193D01*
X225545795Y-124180445D01*
X225469496Y-124160001D01*
X225390504Y-124160001D01*
X225314205Y-124180445D01*
X225280000Y-124200193D01*
X225280000Y-123623184D01*
X225279999Y-123623183D01*
X225182071Y-123642663D01*
X225182063Y-123642665D01*
X225027372Y-123706740D01*
X225027371Y-123706740D01*
X224888160Y-123799758D01*
X224888152Y-123799764D01*
X224769764Y-123918152D01*
X224769758Y-123918160D01*
X224676740Y-124057371D01*
X224676740Y-124057372D01*
X224612665Y-124212063D01*
X224612663Y-124212071D01*
X224580000Y-124376277D01*
X224580000Y-124610000D01*
X225130001Y-124610000D01*
X225130001Y-124910000D01*
X224580000Y-124910000D01*
X224580000Y-125143722D01*
X224612663Y-125307928D01*
X224612665Y-125307936D01*
X224676740Y-125462627D01*
X224739537Y-125556610D01*
X224760415Y-125623287D01*
X224741930Y-125690667D01*
X224689951Y-125737357D01*
X224636435Y-125749500D01*
X210921674Y-125749500D01*
X210917617Y-125749434D01*
X210380872Y-125731862D01*
X210372775Y-125731331D01*
X209840372Y-125678895D01*
X209832327Y-125677836D01*
X209304485Y-125590689D01*
X209296531Y-125589107D01*
X209036022Y-125528365D01*
X208775519Y-125467624D01*
X208767682Y-125465524D01*
X208255722Y-125310222D01*
X208248038Y-125307613D01*
X207747350Y-125119167D01*
X207739854Y-125116062D01*
X207252557Y-124895272D01*
X207245279Y-124891683D01*
X206773463Y-124639491D01*
X206766436Y-124635434D01*
X206509227Y-124475491D01*
X206509226Y-124475491D01*
X206312126Y-124352926D01*
X206305380Y-124348418D01*
X205870517Y-124036800D01*
X205864079Y-124031860D01*
X205450525Y-123692466D01*
X205444425Y-123687116D01*
X205355222Y-123603568D01*
X205053949Y-123321395D01*
X205048237Y-123315683D01*
X204812150Y-123063616D01*
X213091963Y-123063616D01*
X213091963Y-123221309D01*
X213122724Y-123375952D01*
X213122727Y-123375964D01*
X213183065Y-123521635D01*
X213183072Y-123521648D01*
X213270673Y-123652751D01*
X213270676Y-123652755D01*
X213382170Y-123764249D01*
X213382174Y-123764252D01*
X213513277Y-123851853D01*
X213513290Y-123851860D01*
X213658961Y-123912198D01*
X213658966Y-123912200D01*
X213813616Y-123942962D01*
X213813619Y-123942963D01*
X213813621Y-123942963D01*
X213971307Y-123942963D01*
X213971308Y-123942962D01*
X214125960Y-123912200D01*
X214271642Y-123851857D01*
X214402752Y-123764252D01*
X214514252Y-123652752D01*
X214601857Y-123521642D01*
X214662200Y-123375960D01*
X214692963Y-123221305D01*
X214692963Y-123063621D01*
X214692963Y-123063618D01*
X214692962Y-123063616D01*
X214662200Y-122908966D01*
X214662198Y-122908961D01*
X214601860Y-122763290D01*
X214601853Y-122763277D01*
X214513861Y-122631588D01*
X214492983Y-122564910D01*
X214492963Y-122562697D01*
X214492963Y-121967631D01*
X214512648Y-121900592D01*
X214529282Y-121879950D01*
X215109233Y-121299999D01*
X215689658Y-120719573D01*
X215750979Y-120686090D01*
X215753146Y-120685639D01*
X215811081Y-120674114D01*
X215908493Y-120654738D01*
X216054175Y-120594395D01*
X216138819Y-120537838D01*
X216144491Y-120534047D01*
X216185285Y-120506790D01*
X216296785Y-120395290D01*
X216384390Y-120264180D01*
X216444733Y-120118498D01*
X216456271Y-120060492D01*
X216464087Y-120021202D01*
X224630000Y-120021202D01*
X224630000Y-120400000D01*
X225130001Y-120400000D01*
X225130001Y-120700000D01*
X224630000Y-120700000D01*
X224630000Y-121078797D01*
X224660741Y-121233343D01*
X224660743Y-121233351D01*
X224721047Y-121378939D01*
X224721052Y-121378948D01*
X224808598Y-121509969D01*
X224808601Y-121509973D01*
X224920026Y-121621398D01*
X224920030Y-121621401D01*
X225051051Y-121708947D01*
X225051060Y-121708952D01*
X225196646Y-121769255D01*
X225196656Y-121769258D01*
X225279999Y-121785836D01*
X225280000Y-121785836D01*
X225280000Y-121259806D01*
X225314205Y-121279555D01*
X225390504Y-121299999D01*
X225469496Y-121299999D01*
X225545795Y-121279555D01*
X225580000Y-121259806D01*
X225580000Y-121785836D01*
X225663343Y-121769258D01*
X225663353Y-121769255D01*
X225808939Y-121708952D01*
X225808948Y-121708947D01*
X225939969Y-121621401D01*
X225939973Y-121621398D01*
X225988325Y-121573046D01*
X226049648Y-121539560D01*
X226119339Y-121544544D01*
X226175273Y-121586415D01*
X226179108Y-121591834D01*
X226199371Y-121622159D01*
X226199376Y-121622165D01*
X226317837Y-121740626D01*
X226385499Y-121785836D01*
X226457137Y-121833703D01*
X226611918Y-121897816D01*
X226776228Y-121930499D01*
X226776232Y-121930500D01*
X226776233Y-121930500D01*
X226943768Y-121930500D01*
X226943769Y-121930499D01*
X227108082Y-121897816D01*
X227262863Y-121833703D01*
X227402162Y-121740626D01*
X227520626Y-121622162D01*
X227613703Y-121482863D01*
X227677816Y-121328082D01*
X227710500Y-121163767D01*
X227710500Y-120996233D01*
X227710499Y-120996228D01*
X231789500Y-120996228D01*
X231789500Y-121163771D01*
X231816363Y-121298818D01*
X231822184Y-121328082D01*
X231843250Y-121378939D01*
X231886295Y-121482860D01*
X231979373Y-121622162D01*
X232097837Y-121740626D01*
X232165499Y-121785836D01*
X232237137Y-121833703D01*
X232391918Y-121897816D01*
X232556228Y-121930499D01*
X232556232Y-121930500D01*
X232556233Y-121930500D01*
X232723768Y-121930500D01*
X232723769Y-121930499D01*
X232888082Y-121897816D01*
X233042863Y-121833703D01*
X233182162Y-121740626D01*
X233300626Y-121622162D01*
X233313299Y-121603196D01*
X233320890Y-121591836D01*
X233374502Y-121547030D01*
X233443827Y-121538323D01*
X233506854Y-121568477D01*
X233511673Y-121573045D01*
X233560026Y-121621398D01*
X233560030Y-121621401D01*
X233691051Y-121708947D01*
X233691060Y-121708952D01*
X233836646Y-121769255D01*
X233836656Y-121769258D01*
X233919999Y-121785836D01*
X233920000Y-121785836D01*
X233920000Y-121259818D01*
X233954205Y-121279567D01*
X234030504Y-121300011D01*
X234109496Y-121300011D01*
X234185795Y-121279567D01*
X234220000Y-121259818D01*
X234220000Y-121785836D01*
X234303343Y-121769258D01*
X234303353Y-121769255D01*
X234448939Y-121708952D01*
X234448948Y-121708947D01*
X234579969Y-121621401D01*
X234579973Y-121621398D01*
X234691398Y-121509973D01*
X234691401Y-121509969D01*
X234778947Y-121378948D01*
X234778952Y-121378939D01*
X234839256Y-121233351D01*
X234839258Y-121233343D01*
X234869999Y-121078797D01*
X234870000Y-121078794D01*
X234870000Y-120700000D01*
X234369999Y-120700000D01*
X234369999Y-120400000D01*
X234870000Y-120400000D01*
X234870000Y-120021206D01*
X234869999Y-120021202D01*
X234839258Y-119866656D01*
X234839256Y-119866648D01*
X234778952Y-119721060D01*
X234778947Y-119721051D01*
X234691401Y-119590030D01*
X234691398Y-119590026D01*
X234579973Y-119478601D01*
X234579969Y-119478598D01*
X234448948Y-119391052D01*
X234448939Y-119391047D01*
X234303351Y-119330743D01*
X234303345Y-119330741D01*
X234220000Y-119314162D01*
X234220000Y-119840181D01*
X234185795Y-119820433D01*
X234109496Y-119799989D01*
X234030504Y-119799989D01*
X233954205Y-119820433D01*
X233920000Y-119840181D01*
X233920000Y-119314163D01*
X233919999Y-119314162D01*
X233836654Y-119330741D01*
X233836648Y-119330743D01*
X233691060Y-119391047D01*
X233691051Y-119391052D01*
X233560030Y-119478598D01*
X233560026Y-119478601D01*
X233448601Y-119590026D01*
X233448598Y-119590030D01*
X233361052Y-119721051D01*
X233361047Y-119721060D01*
X233300743Y-119866648D01*
X233300741Y-119866656D01*
X233270000Y-120021202D01*
X233270000Y-120246077D01*
X233250315Y-120313116D01*
X233197511Y-120358871D01*
X233128353Y-120368815D01*
X233077111Y-120349180D01*
X233042863Y-120326297D01*
X233042861Y-120326296D01*
X232888082Y-120262184D01*
X232888074Y-120262182D01*
X232723771Y-120229500D01*
X232723767Y-120229500D01*
X232556233Y-120229500D01*
X232556228Y-120229500D01*
X232391925Y-120262182D01*
X232391917Y-120262184D01*
X232237139Y-120326295D01*
X232097837Y-120419373D01*
X231979373Y-120537837D01*
X231886295Y-120677139D01*
X231822184Y-120831917D01*
X231822182Y-120831925D01*
X231789500Y-120996228D01*
X227710499Y-120996228D01*
X227677816Y-120831918D01*
X227623173Y-120700000D01*
X227613704Y-120677139D01*
X227520626Y-120537837D01*
X227402162Y-120419373D01*
X227262860Y-120326295D01*
X227108082Y-120262184D01*
X227108074Y-120262182D01*
X226943771Y-120229500D01*
X226943767Y-120229500D01*
X226776233Y-120229500D01*
X226776228Y-120229500D01*
X226611925Y-120262182D01*
X226611917Y-120262184D01*
X226457138Y-120326296D01*
X226457136Y-120326297D01*
X226422889Y-120349180D01*
X226356212Y-120370057D01*
X226288832Y-120351572D01*
X226242142Y-120299592D01*
X226230000Y-120246077D01*
X226230000Y-120021206D01*
X226229999Y-120021202D01*
X226199258Y-119866656D01*
X226199256Y-119866648D01*
X226138952Y-119721060D01*
X226138947Y-119721051D01*
X226051401Y-119590030D01*
X226051398Y-119590026D01*
X225939973Y-119478601D01*
X225939969Y-119478598D01*
X225808948Y-119391052D01*
X225808939Y-119391047D01*
X225663351Y-119330743D01*
X225663345Y-119330741D01*
X225580000Y-119314162D01*
X225580000Y-119840193D01*
X225545795Y-119820445D01*
X225469496Y-119800001D01*
X225390504Y-119800001D01*
X225314205Y-119820445D01*
X225280000Y-119840193D01*
X225280000Y-119314163D01*
X225279999Y-119314162D01*
X225196654Y-119330741D01*
X225196648Y-119330743D01*
X225051060Y-119391047D01*
X225051051Y-119391052D01*
X224920030Y-119478598D01*
X224920026Y-119478601D01*
X224808601Y-119590026D01*
X224808598Y-119590030D01*
X224721052Y-119721051D01*
X224721047Y-119721060D01*
X224660743Y-119866648D01*
X224660741Y-119866656D01*
X224630000Y-120021202D01*
X216464087Y-120021202D01*
X216470110Y-119990923D01*
X216470110Y-119990922D01*
X216475495Y-119963847D01*
X216475496Y-119963845D01*
X216475496Y-119806156D01*
X216475495Y-119806154D01*
X216474269Y-119799989D01*
X216444733Y-119651504D01*
X216419268Y-119590026D01*
X216384393Y-119505828D01*
X216384386Y-119505815D01*
X216296785Y-119374712D01*
X216296782Y-119374708D01*
X216185288Y-119263214D01*
X216185284Y-119263211D01*
X216054181Y-119175610D01*
X216054168Y-119175603D01*
X215908497Y-119115265D01*
X215908485Y-119115262D01*
X215753841Y-119084501D01*
X215753838Y-119084501D01*
X215596154Y-119084501D01*
X215596151Y-119084501D01*
X215441506Y-119115262D01*
X215441494Y-119115265D01*
X215295823Y-119175603D01*
X215295810Y-119175610D01*
X215164707Y-119263211D01*
X215164703Y-119263214D01*
X215053209Y-119374708D01*
X215053206Y-119374712D01*
X214965605Y-119505815D01*
X214965598Y-119505828D01*
X214905260Y-119651499D01*
X214905257Y-119651509D01*
X214874357Y-119806851D01*
X214841972Y-119868762D01*
X214840421Y-119870340D01*
X213411945Y-121298815D01*
X213411943Y-121298817D01*
X213411261Y-121299999D01*
X213395048Y-121328082D01*
X213332886Y-121435749D01*
X213291962Y-121588477D01*
X213291962Y-121588479D01*
X213291962Y-121756580D01*
X213291963Y-121756593D01*
X213291963Y-122562697D01*
X213272278Y-122629736D01*
X213271065Y-122631588D01*
X213183072Y-122763277D01*
X213183065Y-122763290D01*
X213122727Y-122908961D01*
X213122724Y-122908973D01*
X213091963Y-123063616D01*
X204812150Y-123063616D01*
X204682516Y-122925207D01*
X204677166Y-122919107D01*
X204337772Y-122505553D01*
X204332832Y-122499115D01*
X204021214Y-122064252D01*
X204016706Y-122057505D01*
X203734198Y-121603196D01*
X203730141Y-121596169D01*
X203644393Y-121435747D01*
X203477943Y-121124341D01*
X203474366Y-121117088D01*
X203253569Y-120629775D01*
X203250465Y-120622282D01*
X203218682Y-120537838D01*
X203062019Y-120121594D01*
X203059410Y-120113910D01*
X203013888Y-119963845D01*
X202904105Y-119601941D01*
X202902012Y-119594129D01*
X202780520Y-119073078D01*
X202778947Y-119065169D01*
X202691792Y-118537278D01*
X202690740Y-118529287D01*
X202655467Y-118171153D01*
X228449500Y-118171153D01*
X228449500Y-118328846D01*
X228480261Y-118483489D01*
X228480264Y-118483501D01*
X228540602Y-118629172D01*
X228540609Y-118629185D01*
X228628210Y-118760288D01*
X228628213Y-118760292D01*
X228739707Y-118871786D01*
X228739711Y-118871789D01*
X228870814Y-118959390D01*
X228870827Y-118959397D01*
X229016498Y-119019735D01*
X229016503Y-119019737D01*
X229171153Y-119050499D01*
X229171156Y-119050500D01*
X229171158Y-119050500D01*
X229328844Y-119050500D01*
X229328845Y-119050499D01*
X229483497Y-119019737D01*
X229629179Y-118959394D01*
X229709632Y-118905637D01*
X229760875Y-118871398D01*
X229778921Y-118865747D01*
X229794831Y-118855523D01*
X229825792Y-118851071D01*
X229827553Y-118850520D01*
X229829766Y-118850500D01*
X229920234Y-118850500D01*
X229987273Y-118870185D01*
X229989125Y-118871398D01*
X230120814Y-118959390D01*
X230120827Y-118959397D01*
X230266498Y-119019735D01*
X230266503Y-119019737D01*
X230421153Y-119050499D01*
X230421156Y-119050500D01*
X230421158Y-119050500D01*
X230578844Y-119050500D01*
X230578845Y-119050499D01*
X230733497Y-119019737D01*
X230879179Y-118959394D01*
X231010289Y-118871789D01*
X231121789Y-118760289D01*
X231209394Y-118629179D01*
X231269737Y-118483497D01*
X231300500Y-118328842D01*
X231300500Y-118171158D01*
X231300500Y-118171155D01*
X231300499Y-118171153D01*
X231269738Y-118016510D01*
X231269737Y-118016503D01*
X231269735Y-118016498D01*
X231209397Y-117870827D01*
X231209390Y-117870814D01*
X231121789Y-117739711D01*
X231121786Y-117739707D01*
X231010292Y-117628213D01*
X231010288Y-117628210D01*
X230879185Y-117540609D01*
X230879172Y-117540602D01*
X230733501Y-117480264D01*
X230733489Y-117480261D01*
X230578845Y-117449500D01*
X230578842Y-117449500D01*
X230421158Y-117449500D01*
X230421155Y-117449500D01*
X230266510Y-117480261D01*
X230266498Y-117480264D01*
X230120827Y-117540602D01*
X230120814Y-117540609D01*
X229989125Y-117628602D01*
X229971078Y-117634252D01*
X229955169Y-117644477D01*
X229924207Y-117648928D01*
X229922447Y-117649480D01*
X229920234Y-117649500D01*
X229829766Y-117649500D01*
X229762727Y-117629815D01*
X229760875Y-117628602D01*
X229629185Y-117540609D01*
X229629172Y-117540602D01*
X229483501Y-117480264D01*
X229483489Y-117480261D01*
X229328845Y-117449500D01*
X229328842Y-117449500D01*
X229171158Y-117449500D01*
X229171155Y-117449500D01*
X229016510Y-117480261D01*
X229016498Y-117480264D01*
X228870827Y-117540602D01*
X228870814Y-117540609D01*
X228739711Y-117628210D01*
X228739707Y-117628213D01*
X228628213Y-117739707D01*
X228628210Y-117739711D01*
X228540609Y-117870814D01*
X228540602Y-117870827D01*
X228480264Y-118016498D01*
X228480261Y-118016510D01*
X228449500Y-118171153D01*
X202655467Y-118171153D01*
X202638300Y-117996848D01*
X202637770Y-117988760D01*
X202633909Y-117870827D01*
X202620199Y-117452016D01*
X202620133Y-117447959D01*
X202620133Y-110102135D01*
X203899500Y-110102135D01*
X203899500Y-111897870D01*
X203899501Y-111897876D01*
X203905908Y-111957483D01*
X203956202Y-112092328D01*
X203956206Y-112092335D01*
X204042452Y-112207544D01*
X204042455Y-112207547D01*
X204157664Y-112293793D01*
X204157671Y-112293797D01*
X204289082Y-112342810D01*
X204345016Y-112384681D01*
X204369433Y-112450145D01*
X204354582Y-112518418D01*
X204333431Y-112546673D01*
X204219889Y-112660215D01*
X204094951Y-112832179D01*
X203998444Y-113021585D01*
X203932753Y-113223760D01*
X203899500Y-113433713D01*
X203899500Y-113646286D01*
X203932753Y-113856239D01*
X203998444Y-114058414D01*
X204094951Y-114247820D01*
X204219890Y-114419786D01*
X204370213Y-114570109D01*
X204542179Y-114695048D01*
X204542181Y-114695049D01*
X204542184Y-114695051D01*
X204731588Y-114791557D01*
X204830715Y-114823765D01*
X204888388Y-114863201D01*
X204915587Y-114927560D01*
X204903673Y-114996406D01*
X204856429Y-115047882D01*
X204830722Y-115059623D01*
X204827746Y-115060589D01*
X204673478Y-115139194D01*
X204585352Y-115203220D01*
X205018461Y-115636329D01*
X204942993Y-115679901D01*
X204849901Y-115772993D01*
X204806329Y-115848461D01*
X204373220Y-115415352D01*
X204309194Y-115503478D01*
X204230591Y-115657742D01*
X204177085Y-115822415D01*
X204150000Y-115993428D01*
X204150000Y-116166571D01*
X204177085Y-116337584D01*
X204230591Y-116502257D01*
X204309198Y-116656528D01*
X204373219Y-116744646D01*
X204373220Y-116744647D01*
X204806329Y-116311538D01*
X204849901Y-116387007D01*
X204942993Y-116480099D01*
X205018460Y-116523670D01*
X204585351Y-116956778D01*
X204585352Y-116956780D01*
X204673471Y-117020801D01*
X204827742Y-117099408D01*
X204992415Y-117152914D01*
X205163429Y-117180000D01*
X205336571Y-117180000D01*
X205507584Y-117152914D01*
X205672257Y-117099408D01*
X205826525Y-117020803D01*
X205914646Y-116956778D01*
X205914647Y-116956778D01*
X205481539Y-116523670D01*
X205557007Y-116480099D01*
X205650099Y-116387007D01*
X205693670Y-116311539D01*
X206126778Y-116744647D01*
X206126778Y-116744646D01*
X206190803Y-116656525D01*
X206269408Y-116502257D01*
X206322914Y-116337584D01*
X206350000Y-116166571D01*
X206350000Y-115993428D01*
X206322914Y-115822415D01*
X206269408Y-115657742D01*
X206190801Y-115503471D01*
X206126780Y-115415352D01*
X206126778Y-115415351D01*
X205693670Y-115848460D01*
X205650099Y-115772993D01*
X205557007Y-115679901D01*
X205481538Y-115636329D01*
X205914647Y-115203220D01*
X205914646Y-115203219D01*
X205826528Y-115139198D01*
X205672256Y-115060591D01*
X205669282Y-115059625D01*
X205668296Y-115058951D01*
X205667760Y-115058729D01*
X205667806Y-115058616D01*
X205611608Y-115020185D01*
X205584412Y-114955826D01*
X205596328Y-114886980D01*
X205643574Y-114835506D01*
X205669280Y-114823766D01*
X205768412Y-114791557D01*
X205957816Y-114695051D01*
X205979789Y-114679086D01*
X206129786Y-114570109D01*
X206129788Y-114570106D01*
X206129792Y-114570104D01*
X206280104Y-114419792D01*
X206280106Y-114419788D01*
X206280109Y-114419786D01*
X206405048Y-114247820D01*
X206405047Y-114247820D01*
X206405051Y-114247816D01*
X206501557Y-114058412D01*
X206567246Y-113856243D01*
X206600500Y-113646287D01*
X206600500Y-113433713D01*
X206567246Y-113223757D01*
X206501557Y-113021588D01*
X206405051Y-112832184D01*
X206405049Y-112832181D01*
X206405048Y-112832179D01*
X206280109Y-112660213D01*
X206166569Y-112546673D01*
X206133084Y-112485350D01*
X206138068Y-112415658D01*
X206179940Y-112359725D01*
X206210915Y-112342810D01*
X206342331Y-112293796D01*
X206457546Y-112207546D01*
X206543796Y-112092331D01*
X206594091Y-111957483D01*
X206600500Y-111897873D01*
X206600499Y-110102128D01*
X206594091Y-110042517D01*
X206582070Y-110010288D01*
X206543797Y-109907671D01*
X206543793Y-109907664D01*
X206457547Y-109792455D01*
X206457544Y-109792452D01*
X206342335Y-109706206D01*
X206342328Y-109706202D01*
X206207482Y-109655908D01*
X206207483Y-109655908D01*
X206147883Y-109649501D01*
X206147881Y-109649500D01*
X206147873Y-109649500D01*
X206147864Y-109649500D01*
X204352129Y-109649500D01*
X204352123Y-109649501D01*
X204292516Y-109655908D01*
X204157671Y-109706202D01*
X204157664Y-109706206D01*
X204042455Y-109792452D01*
X204042452Y-109792455D01*
X203956206Y-109907664D01*
X203956202Y-109907671D01*
X203905908Y-110042517D01*
X203899675Y-110100500D01*
X203899501Y-110102123D01*
X203899500Y-110102135D01*
X202620133Y-110102135D01*
X202620133Y-101102135D01*
X203899500Y-101102135D01*
X203899500Y-102897870D01*
X203899501Y-102897876D01*
X203905908Y-102957483D01*
X203956202Y-103092328D01*
X203956206Y-103092335D01*
X204042452Y-103207544D01*
X204042455Y-103207547D01*
X204157664Y-103293793D01*
X204157671Y-103293797D01*
X204289082Y-103342810D01*
X204345016Y-103384681D01*
X204369433Y-103450145D01*
X204354582Y-103518418D01*
X204333431Y-103546673D01*
X204219889Y-103660215D01*
X204094951Y-103832179D01*
X203998444Y-104021585D01*
X203932753Y-104223760D01*
X203908560Y-104376508D01*
X203899500Y-104433713D01*
X203899500Y-104646287D01*
X203906240Y-104688840D01*
X203928238Y-104827735D01*
X203932754Y-104856243D01*
X203988237Y-105027002D01*
X203998444Y-105058414D01*
X204094951Y-105247820D01*
X204219890Y-105419786D01*
X204370213Y-105570109D01*
X204542179Y-105695048D01*
X204542181Y-105695049D01*
X204542184Y-105695051D01*
X204731588Y-105791557D01*
X204830715Y-105823765D01*
X204888388Y-105863201D01*
X204915587Y-105927560D01*
X204903673Y-105996406D01*
X204856429Y-106047882D01*
X204830722Y-106059623D01*
X204827746Y-106060589D01*
X204673478Y-106139194D01*
X204585352Y-106203220D01*
X205018461Y-106636329D01*
X204942993Y-106679901D01*
X204849901Y-106772993D01*
X204806329Y-106848461D01*
X204373220Y-106415352D01*
X204309194Y-106503478D01*
X204230591Y-106657742D01*
X204177085Y-106822415D01*
X204150000Y-106993428D01*
X204150000Y-107166571D01*
X204177085Y-107337584D01*
X204230591Y-107502257D01*
X204309198Y-107656528D01*
X204373219Y-107744646D01*
X204373220Y-107744647D01*
X204806329Y-107311538D01*
X204849901Y-107387007D01*
X204942993Y-107480099D01*
X205018460Y-107523670D01*
X204585351Y-107956778D01*
X204585352Y-107956780D01*
X204673471Y-108020801D01*
X204827742Y-108099408D01*
X204992415Y-108152914D01*
X205163429Y-108180000D01*
X205336571Y-108180000D01*
X205507584Y-108152914D01*
X205672257Y-108099408D01*
X205826525Y-108020803D01*
X205914646Y-107956778D01*
X205914647Y-107956778D01*
X205481539Y-107523670D01*
X205557007Y-107480099D01*
X205650099Y-107387007D01*
X205693670Y-107311539D01*
X206126778Y-107744647D01*
X206126778Y-107744646D01*
X206190803Y-107656525D01*
X206269408Y-107502257D01*
X206322914Y-107337584D01*
X206350000Y-107166571D01*
X206350000Y-106993428D01*
X206322914Y-106822415D01*
X206269408Y-106657742D01*
X206190801Y-106503471D01*
X206126780Y-106415352D01*
X206126778Y-106415351D01*
X205693670Y-106848460D01*
X205650099Y-106772993D01*
X205557007Y-106679901D01*
X205481538Y-106636329D01*
X205914647Y-106203220D01*
X205914646Y-106203219D01*
X205826528Y-106139198D01*
X205672256Y-106060591D01*
X205669282Y-106059625D01*
X205668296Y-106058951D01*
X205667760Y-106058729D01*
X205667806Y-106058616D01*
X205611608Y-106020185D01*
X205584412Y-105955826D01*
X205596328Y-105886980D01*
X205643574Y-105835506D01*
X205669280Y-105823766D01*
X205768412Y-105791557D01*
X205957816Y-105695051D01*
X206029603Y-105642895D01*
X206129786Y-105570109D01*
X206129788Y-105570106D01*
X206129792Y-105570104D01*
X206280104Y-105419792D01*
X206280106Y-105419788D01*
X206280109Y-105419786D01*
X206405048Y-105247820D01*
X206405047Y-105247820D01*
X206405051Y-105247816D01*
X206501557Y-105058412D01*
X206567246Y-104856243D01*
X206600500Y-104646287D01*
X206600500Y-104433713D01*
X206567246Y-104223757D01*
X206501557Y-104021588D01*
X206405051Y-103832184D01*
X206405049Y-103832181D01*
X206405048Y-103832179D01*
X206280109Y-103660213D01*
X206166569Y-103546673D01*
X206133084Y-103485350D01*
X206138068Y-103415658D01*
X206179940Y-103359725D01*
X206210915Y-103342810D01*
X206342331Y-103293796D01*
X206457546Y-103207546D01*
X206543796Y-103092331D01*
X206594091Y-102957483D01*
X206600500Y-102897873D01*
X206600499Y-101102128D01*
X206594091Y-101042517D01*
X206584388Y-101016503D01*
X206543797Y-100907671D01*
X206543793Y-100907664D01*
X206457547Y-100792455D01*
X206457544Y-100792452D01*
X206342335Y-100706206D01*
X206342328Y-100706202D01*
X206207482Y-100655908D01*
X206207483Y-100655908D01*
X206147883Y-100649501D01*
X206147881Y-100649500D01*
X206147873Y-100649500D01*
X206147864Y-100649500D01*
X204352129Y-100649500D01*
X204352123Y-100649501D01*
X204292516Y-100655908D01*
X204157671Y-100706202D01*
X204157664Y-100706206D01*
X204042455Y-100792452D01*
X204042452Y-100792455D01*
X203956206Y-100907664D01*
X203956202Y-100907671D01*
X203905908Y-101042517D01*
X203899642Y-101100808D01*
X203899501Y-101102123D01*
X203899500Y-101102135D01*
X202620133Y-101102135D01*
X202620133Y-92196037D01*
X212764500Y-92196037D01*
X212764500Y-92353730D01*
X212795261Y-92508373D01*
X212795264Y-92508385D01*
X212855602Y-92654056D01*
X212855609Y-92654069D01*
X212943210Y-92785172D01*
X212943213Y-92785176D01*
X213054707Y-92896670D01*
X213054711Y-92896673D01*
X213185814Y-92984274D01*
X213185827Y-92984281D01*
X213286801Y-93026105D01*
X213331503Y-93044621D01*
X213481367Y-93074431D01*
X213486153Y-93075383D01*
X213486156Y-93075384D01*
X213486158Y-93075384D01*
X213600999Y-93075384D01*
X213633092Y-93079609D01*
X213711059Y-93100500D01*
X214913331Y-93100500D01*
X214913347Y-93100501D01*
X214920943Y-93100501D01*
X215079054Y-93100501D01*
X215079057Y-93100501D01*
X215231785Y-93059577D01*
X215289760Y-93026105D01*
X215368716Y-92980520D01*
X215480520Y-92868716D01*
X215480520Y-92868714D01*
X215490724Y-92858511D01*
X215490727Y-92858506D01*
X216014665Y-92334570D01*
X216075984Y-92301088D01*
X216078151Y-92300637D01*
X216078840Y-92300500D01*
X216078842Y-92300500D01*
X216233497Y-92269737D01*
X216346166Y-92223067D01*
X216379172Y-92209397D01*
X216379172Y-92209396D01*
X216379179Y-92209394D01*
X216510289Y-92121789D01*
X216621789Y-92010289D01*
X216709394Y-91879179D01*
X216769737Y-91733497D01*
X216800500Y-91578842D01*
X216800500Y-91421158D01*
X216800500Y-91421155D01*
X216800499Y-91421153D01*
X216791613Y-91376482D01*
X216769737Y-91266503D01*
X216755359Y-91231790D01*
X216709397Y-91120827D01*
X216709390Y-91120814D01*
X216621789Y-90989711D01*
X216621786Y-90989707D01*
X216510292Y-90878213D01*
X216510288Y-90878210D01*
X216379185Y-90790609D01*
X216379172Y-90790602D01*
X216233501Y-90730264D01*
X216233489Y-90730261D01*
X216078845Y-90699500D01*
X216078842Y-90699500D01*
X215921158Y-90699500D01*
X215921155Y-90699500D01*
X215766510Y-90730261D01*
X215766498Y-90730264D01*
X215620827Y-90790602D01*
X215620814Y-90790609D01*
X215489711Y-90878210D01*
X215489707Y-90878213D01*
X215378213Y-90989707D01*
X215378210Y-90989711D01*
X215290609Y-91120814D01*
X215290602Y-91120827D01*
X215230264Y-91266498D01*
X215230261Y-91266508D01*
X215199362Y-91421849D01*
X215166977Y-91483759D01*
X215165426Y-91485338D01*
X214976195Y-91674570D01*
X214787584Y-91863181D01*
X214726261Y-91896666D01*
X214699903Y-91899500D01*
X214343209Y-91899500D01*
X214276170Y-91879815D01*
X214240107Y-91844390D01*
X214186792Y-91764599D01*
X214186786Y-91764591D01*
X214075292Y-91653097D01*
X214075288Y-91653094D01*
X213944185Y-91565493D01*
X213944172Y-91565486D01*
X213798501Y-91505148D01*
X213798489Y-91505145D01*
X213643845Y-91474384D01*
X213643842Y-91474384D01*
X213486158Y-91474384D01*
X213486155Y-91474384D01*
X213331510Y-91505145D01*
X213331498Y-91505148D01*
X213185827Y-91565486D01*
X213185814Y-91565493D01*
X213054711Y-91653094D01*
X213054707Y-91653097D01*
X212943213Y-91764591D01*
X212943210Y-91764595D01*
X212855609Y-91895698D01*
X212855602Y-91895711D01*
X212795264Y-92041382D01*
X212795261Y-92041394D01*
X212764500Y-92196037D01*
X202620133Y-92196037D01*
X202620133Y-79621153D01*
X207899500Y-79621153D01*
X207899500Y-79778846D01*
X207930261Y-79933489D01*
X207930264Y-79933501D01*
X207990602Y-80079172D01*
X207990609Y-80079185D01*
X208078210Y-80210288D01*
X208078213Y-80210292D01*
X208189707Y-80321786D01*
X208189711Y-80321789D01*
X208320814Y-80409390D01*
X208320827Y-80409397D01*
X208465590Y-80469359D01*
X208466503Y-80469737D01*
X208621153Y-80500499D01*
X208621156Y-80500500D01*
X208621158Y-80500500D01*
X208778844Y-80500500D01*
X208778845Y-80500499D01*
X208933497Y-80469737D01*
X209079179Y-80409394D01*
X209210289Y-80321789D01*
X209321789Y-80210289D01*
X209409394Y-80079179D01*
X209469737Y-79933497D01*
X209500500Y-79778842D01*
X209500500Y-79621158D01*
X209500500Y-79621155D01*
X209500499Y-79621153D01*
X209469737Y-79466503D01*
X209450953Y-79421153D01*
X214199500Y-79421153D01*
X214199500Y-79578846D01*
X214230261Y-79733489D01*
X214230264Y-79733501D01*
X214290602Y-79879172D01*
X214290609Y-79879185D01*
X214378210Y-80010288D01*
X214378213Y-80010292D01*
X214489707Y-80121786D01*
X214489711Y-80121789D01*
X214620814Y-80209390D01*
X214620827Y-80209397D01*
X214766498Y-80269735D01*
X214766503Y-80269737D01*
X214921153Y-80300499D01*
X214921156Y-80300500D01*
X214921158Y-80300500D01*
X215078844Y-80300500D01*
X215078845Y-80300499D01*
X215233497Y-80269737D01*
X215379179Y-80209394D01*
X215510289Y-80121789D01*
X215621789Y-80010289D01*
X215709394Y-79879179D01*
X215769737Y-79733497D01*
X215792084Y-79621153D01*
X215800638Y-79578150D01*
X215833023Y-79516239D01*
X215834518Y-79514716D01*
X216703849Y-78645385D01*
X216722628Y-78629973D01*
X216807025Y-78573582D01*
X216918525Y-78462082D01*
X217006130Y-78330972D01*
X217016154Y-78306773D01*
X217034292Y-78262983D01*
X217066473Y-78185290D01*
X217097236Y-78030635D01*
X217097236Y-77872951D01*
X217097236Y-77872948D01*
X217097235Y-77872946D01*
X217084594Y-77809397D01*
X217066473Y-77718296D01*
X217064400Y-77713291D01*
X217006133Y-77572620D01*
X217006126Y-77572607D01*
X216918525Y-77441504D01*
X216918522Y-77441500D01*
X216807028Y-77330006D01*
X216807024Y-77330003D01*
X216675921Y-77242402D01*
X216675908Y-77242395D01*
X216530237Y-77182057D01*
X216530225Y-77182054D01*
X216375581Y-77151293D01*
X216375578Y-77151293D01*
X216217894Y-77151293D01*
X216217891Y-77151293D01*
X216063246Y-77182054D01*
X216063234Y-77182057D01*
X215917563Y-77242395D01*
X215917550Y-77242402D01*
X215786447Y-77330003D01*
X215786443Y-77330006D01*
X215674949Y-77441500D01*
X215674946Y-77441504D01*
X215587345Y-77572607D01*
X215587338Y-77572620D01*
X215527000Y-77718291D01*
X215526997Y-77718303D01*
X215496236Y-77872946D01*
X215496236Y-77872951D01*
X215496236Y-78030635D01*
X215496236Y-78030637D01*
X215496235Y-78030637D01*
X215503860Y-78068965D01*
X215497633Y-78138557D01*
X215469924Y-78180838D01*
X214985339Y-78665425D01*
X214924016Y-78698910D01*
X214921850Y-78699361D01*
X214766508Y-78730261D01*
X214766498Y-78730264D01*
X214620827Y-78790602D01*
X214620814Y-78790609D01*
X214489711Y-78878210D01*
X214489707Y-78878213D01*
X214378213Y-78989707D01*
X214378210Y-78989711D01*
X214290609Y-79120814D01*
X214290602Y-79120827D01*
X214230264Y-79266498D01*
X214230261Y-79266510D01*
X214199500Y-79421153D01*
X209450953Y-79421153D01*
X209409394Y-79320821D01*
X209398323Y-79304252D01*
X209393964Y-79294358D01*
X209390796Y-79270010D01*
X209383459Y-79246582D01*
X209386367Y-79235976D01*
X209384949Y-79225073D01*
X209395444Y-79202882D01*
X209401940Y-79179201D01*
X209413638Y-79164415D01*
X209414823Y-79161912D01*
X209416396Y-79160930D01*
X209419754Y-79156686D01*
X210287819Y-78288622D01*
X210349142Y-78255137D01*
X210418834Y-78260121D01*
X210474767Y-78301993D01*
X210499184Y-78367457D01*
X210499500Y-78376303D01*
X210499500Y-78478846D01*
X210530261Y-78633489D01*
X210530264Y-78633501D01*
X210590602Y-78779172D01*
X210590609Y-78779185D01*
X210678210Y-78910288D01*
X210678213Y-78910292D01*
X210789707Y-79021786D01*
X210789711Y-79021789D01*
X210920814Y-79109390D01*
X210920827Y-79109397D01*
X211053654Y-79164415D01*
X211066503Y-79169737D01*
X211221153Y-79200499D01*
X211221156Y-79200500D01*
X211221158Y-79200500D01*
X211378844Y-79200500D01*
X211378845Y-79200499D01*
X211533497Y-79169737D01*
X211651592Y-79120821D01*
X211679172Y-79109397D01*
X211679172Y-79109396D01*
X211679179Y-79109394D01*
X211810289Y-79021789D01*
X211921789Y-78910289D01*
X212009394Y-78779179D01*
X212069737Y-78633497D01*
X212100500Y-78478842D01*
X212100500Y-78321158D01*
X212100500Y-78321155D01*
X212100499Y-78321153D01*
X212094028Y-78288622D01*
X212069737Y-78166503D01*
X212018843Y-78043634D01*
X212011375Y-77974167D01*
X212042650Y-77911688D01*
X212102739Y-77876036D01*
X212109186Y-77874572D01*
X212133497Y-77869737D01*
X212279179Y-77809394D01*
X212410289Y-77721789D01*
X212521789Y-77610289D01*
X212609394Y-77479179D01*
X212669737Y-77333497D01*
X212689113Y-77236085D01*
X212700638Y-77178150D01*
X212733023Y-77116239D01*
X212734518Y-77114716D01*
X222492414Y-67356821D01*
X222553737Y-67323336D01*
X222580095Y-67320502D01*
X226515216Y-67320502D01*
X226582255Y-67340187D01*
X226628010Y-67392991D01*
X226637954Y-67462149D01*
X226608929Y-67525705D01*
X226602898Y-67532180D01*
X224554788Y-69580290D01*
X223873441Y-70261637D01*
X223619481Y-70515596D01*
X223619480Y-70515598D01*
X223588223Y-70569737D01*
X223540423Y-70652529D01*
X223499499Y-70805257D01*
X223499499Y-70805259D01*
X223499499Y-70973360D01*
X223499500Y-70973373D01*
X223499500Y-76427544D01*
X223499499Y-76427562D01*
X223499499Y-76593268D01*
X223499498Y-76593268D01*
X223540424Y-76746003D01*
X223540425Y-76746004D01*
X223556481Y-76773813D01*
X223556482Y-76773814D01*
X223619477Y-76882926D01*
X223619481Y-76882931D01*
X223738349Y-77001799D01*
X223738355Y-77001804D01*
X228100925Y-81364374D01*
X228100935Y-81364385D01*
X228105265Y-81368715D01*
X228105266Y-81368716D01*
X228217070Y-81480520D01*
X228217072Y-81480521D01*
X228217076Y-81480524D01*
X228284551Y-81519480D01*
X228354002Y-81559577D01*
X228465805Y-81589534D01*
X228506728Y-81600500D01*
X228506729Y-81600500D01*
X228780232Y-81600500D01*
X228847271Y-81620185D01*
X228849123Y-81621398D01*
X228980812Y-81709390D01*
X228980825Y-81709397D01*
X229071350Y-81746893D01*
X229126501Y-81769737D01*
X229281151Y-81800499D01*
X229281154Y-81800500D01*
X229281156Y-81800500D01*
X229438842Y-81800500D01*
X229438843Y-81800499D01*
X229593495Y-81769737D01*
X229739177Y-81709394D01*
X229870287Y-81621789D01*
X229981787Y-81510289D01*
X230032355Y-81434608D01*
X230072398Y-81374681D01*
X230126010Y-81329876D01*
X230195335Y-81321169D01*
X230258363Y-81351323D01*
X230295082Y-81410767D01*
X230299500Y-81443572D01*
X230299500Y-83175936D01*
X230297559Y-83182545D01*
X230298775Y-83189327D01*
X230287840Y-83215643D01*
X230279815Y-83242975D01*
X230274610Y-83247484D01*
X230271966Y-83253849D01*
X230248536Y-83270077D01*
X230227011Y-83288730D01*
X230220193Y-83289710D01*
X230214529Y-83293634D01*
X230186052Y-83294619D01*
X230157853Y-83298674D01*
X230149917Y-83295869D01*
X230144702Y-83296050D01*
X230129490Y-83288650D01*
X230112109Y-83282508D01*
X230098868Y-83274632D01*
X230093716Y-83269480D01*
X229974957Y-83200915D01*
X229956785Y-83190423D01*
X229804057Y-83149499D01*
X229645943Y-83149499D01*
X229638347Y-83149499D01*
X229638331Y-83149500D01*
X228079057Y-83149500D01*
X227920943Y-83149500D01*
X227768216Y-83190423D01*
X227768214Y-83190423D01*
X227760365Y-83192527D01*
X227759739Y-83190190D01*
X227702472Y-83196342D01*
X227639996Y-83165061D01*
X227604349Y-83104969D01*
X227600500Y-83074314D01*
X227600500Y-82629471D01*
X227599633Y-82626235D01*
X227597618Y-82618716D01*
X227577028Y-82541873D01*
X227576870Y-82541285D01*
X227559577Y-82476743D01*
X227559576Y-82476740D01*
X227480524Y-82339817D01*
X227480521Y-82339813D01*
X227480520Y-82339811D01*
X227368716Y-82228007D01*
X227368715Y-82228006D01*
X227364385Y-82223676D01*
X227364374Y-82223666D01*
X226779063Y-81638355D01*
X226779061Y-81638352D01*
X226660190Y-81519481D01*
X226660189Y-81519480D01*
X226569202Y-81466949D01*
X226569201Y-81466948D01*
X226523263Y-81440425D01*
X226523262Y-81440424D01*
X226510736Y-81437067D01*
X226370530Y-81399499D01*
X226212416Y-81399499D01*
X226204820Y-81399499D01*
X226204804Y-81399500D01*
X225123727Y-81399500D01*
X224971000Y-81440423D01*
X224970993Y-81440426D01*
X224834074Y-81519475D01*
X224834066Y-81519481D01*
X224722265Y-81631282D01*
X224722259Y-81631290D01*
X224643210Y-81768209D01*
X224643207Y-81768216D01*
X224602284Y-81920943D01*
X224602284Y-82714189D01*
X224582599Y-82781228D01*
X224529795Y-82826983D01*
X224460637Y-82836927D01*
X224446194Y-82833964D01*
X224317568Y-82799499D01*
X224200097Y-82799499D01*
X224133058Y-82779814D01*
X224112416Y-82763180D01*
X223778717Y-82429481D01*
X223778709Y-82429475D01*
X223673470Y-82368716D01*
X223673469Y-82368715D01*
X223673469Y-82368716D01*
X223641785Y-82350423D01*
X223489057Y-82309499D01*
X223330943Y-82309499D01*
X223323347Y-82309499D01*
X223323331Y-82309500D01*
X221169766Y-82309500D01*
X221102727Y-82289815D01*
X221100875Y-82288602D01*
X220969185Y-82200609D01*
X220969172Y-82200602D01*
X220823501Y-82140264D01*
X220823489Y-82140261D01*
X220668845Y-82109500D01*
X220668842Y-82109500D01*
X220511158Y-82109500D01*
X220511155Y-82109500D01*
X220356510Y-82140261D01*
X220356498Y-82140264D01*
X220210827Y-82200602D01*
X220210814Y-82200609D01*
X220079711Y-82288210D01*
X220079707Y-82288213D01*
X219968213Y-82399707D01*
X219968210Y-82399711D01*
X219880609Y-82530814D01*
X219880602Y-82530827D01*
X219820264Y-82676498D01*
X219820261Y-82676510D01*
X219789500Y-82831153D01*
X219789500Y-82988846D01*
X219820261Y-83143489D01*
X219820264Y-83143501D01*
X219880602Y-83289172D01*
X219880609Y-83289185D01*
X219968210Y-83420288D01*
X219968213Y-83420292D01*
X220079707Y-83531786D01*
X220079711Y-83531789D01*
X220210814Y-83619390D01*
X220210827Y-83619397D01*
X220356498Y-83679735D01*
X220356503Y-83679737D01*
X220362904Y-83681010D01*
X220388523Y-83694409D01*
X220415369Y-83705157D01*
X220419106Y-83710405D01*
X220424815Y-83713391D01*
X220439124Y-83738515D01*
X220455898Y-83762071D01*
X220456204Y-83768506D01*
X220459393Y-83774105D01*
X220457846Y-83802977D01*
X220459223Y-83831861D01*
X220455848Y-83840289D01*
X220455657Y-83843874D01*
X220446106Y-83864627D01*
X220410308Y-83926632D01*
X220410307Y-83926634D01*
X220378658Y-83981450D01*
X220368468Y-84019480D01*
X220337734Y-84134179D01*
X220337734Y-84134181D01*
X220337734Y-84302282D01*
X220337735Y-84302295D01*
X220337735Y-85981999D01*
X220318050Y-86049038D01*
X220316837Y-86050890D01*
X220228844Y-86182579D01*
X220228837Y-86182592D01*
X220168499Y-86328263D01*
X220168496Y-86328275D01*
X220137735Y-86482918D01*
X220137735Y-86640611D01*
X220168496Y-86795254D01*
X220168499Y-86795266D01*
X220228837Y-86940937D01*
X220228843Y-86940948D01*
X220239308Y-86956610D01*
X220260185Y-87023288D01*
X220241700Y-87090668D01*
X220189720Y-87137358D01*
X220136205Y-87149500D01*
X214999096Y-87149500D01*
X214932057Y-87129815D01*
X214886302Y-87077011D01*
X214876358Y-87007853D01*
X214905383Y-86944297D01*
X214911415Y-86937819D01*
X217488856Y-84360378D01*
X220075685Y-81773548D01*
X220137006Y-81740065D01*
X220206698Y-81745049D01*
X220210798Y-81746663D01*
X220235706Y-81756980D01*
X220266497Y-81769735D01*
X220266499Y-81769735D01*
X220266503Y-81769737D01*
X220421153Y-81800499D01*
X220421156Y-81800500D01*
X220421158Y-81800500D01*
X220578844Y-81800500D01*
X220578845Y-81800499D01*
X220733497Y-81769737D01*
X220879179Y-81709394D01*
X221010289Y-81621789D01*
X221121789Y-81510289D01*
X221209394Y-81379179D01*
X221269737Y-81233497D01*
X221300500Y-81078842D01*
X221300500Y-80921158D01*
X221300500Y-80921155D01*
X221300499Y-80921153D01*
X221269737Y-80766503D01*
X221242398Y-80700500D01*
X221209397Y-80620827D01*
X221209390Y-80620814D01*
X221121789Y-80489711D01*
X221121786Y-80489707D01*
X221010292Y-80378213D01*
X221010288Y-80378210D01*
X220879185Y-80290609D01*
X220879172Y-80290602D01*
X220733501Y-80230264D01*
X220733489Y-80230261D01*
X220578845Y-80199500D01*
X220578842Y-80199500D01*
X220421158Y-80199500D01*
X220421155Y-80199500D01*
X220266510Y-80230261D01*
X220266498Y-80230264D01*
X220120827Y-80290602D01*
X220120814Y-80290609D01*
X219989125Y-80378602D01*
X219928875Y-80397467D01*
X219929003Y-80398439D01*
X219923426Y-80399173D01*
X219922447Y-80399480D01*
X219920997Y-80399493D01*
X219920943Y-80399500D01*
X219768215Y-80440423D01*
X219768214Y-80440423D01*
X219768212Y-80440424D01*
X219768209Y-80440425D01*
X219718096Y-80469359D01*
X219718095Y-80469360D01*
X219682853Y-80489707D01*
X219631285Y-80519479D01*
X219631282Y-80519481D01*
X213169481Y-86981282D01*
X213169479Y-86981285D01*
X213133861Y-87042979D01*
X213133860Y-87042981D01*
X213090423Y-87118214D01*
X213082125Y-87149184D01*
X213049499Y-87270943D01*
X213049499Y-87270945D01*
X213049499Y-87439046D01*
X213049500Y-87439059D01*
X213049500Y-87911859D01*
X213049499Y-87911877D01*
X213049499Y-88077583D01*
X213049498Y-88077583D01*
X213049499Y-88077586D01*
X213090423Y-88230314D01*
X213118283Y-88278569D01*
X213169477Y-88367241D01*
X213169481Y-88367246D01*
X213288349Y-88486114D01*
X213288355Y-88486119D01*
X213516610Y-88714374D01*
X213516620Y-88714385D01*
X213520950Y-88718715D01*
X213520951Y-88718716D01*
X213632755Y-88830520D01*
X213702171Y-88870597D01*
X213769686Y-88909577D01*
X213922414Y-88950500D01*
X214411860Y-88950500D01*
X214411876Y-88950501D01*
X214419472Y-88950501D01*
X214577583Y-88950501D01*
X214577586Y-88950501D01*
X214730314Y-88909577D01*
X214797829Y-88870597D01*
X214867245Y-88830520D01*
X214917304Y-88780460D01*
X214924509Y-88775089D01*
X214949179Y-88765941D01*
X214972269Y-88753334D01*
X214987641Y-88751681D01*
X214990021Y-88750799D01*
X214991935Y-88751219D01*
X214998627Y-88750500D01*
X223285868Y-88750500D01*
X223352907Y-88770185D01*
X223398662Y-88822989D01*
X223408606Y-88892147D01*
X223379581Y-88955703D01*
X223347868Y-88981887D01*
X223282758Y-89019477D01*
X223282753Y-89019481D01*
X220919481Y-91382753D01*
X220919479Y-91382756D01*
X220904129Y-91409343D01*
X220888779Y-91435931D01*
X220860254Y-91485338D01*
X220842413Y-91516240D01*
X220840423Y-91519686D01*
X220799499Y-91672414D01*
X220799499Y-91672416D01*
X220799499Y-91840517D01*
X220799500Y-91840530D01*
X220799500Y-104063330D01*
X220799499Y-104063348D01*
X220799499Y-104229054D01*
X220799498Y-104229054D01*
X220839005Y-104376496D01*
X220840423Y-104381785D01*
X220859062Y-104414068D01*
X220919479Y-104518714D01*
X220919481Y-104518717D01*
X221038349Y-104637585D01*
X221038355Y-104637590D01*
X222043660Y-105642895D01*
X222077145Y-105704218D01*
X222077596Y-105706384D01*
X222108496Y-105861726D01*
X222108499Y-105861736D01*
X222168837Y-106007407D01*
X222168844Y-106007420D01*
X222256445Y-106138523D01*
X222256448Y-106138527D01*
X222367942Y-106250021D01*
X222367946Y-106250024D01*
X222499049Y-106337625D01*
X222499062Y-106337632D01*
X222644733Y-106397970D01*
X222644738Y-106397972D01*
X222799393Y-106428735D01*
X222799394Y-106428735D01*
X222799691Y-106428794D01*
X222861602Y-106461178D01*
X222896176Y-106521894D01*
X222899500Y-106550411D01*
X222899500Y-107420234D01*
X222879815Y-107487273D01*
X222878602Y-107489125D01*
X222790609Y-107620814D01*
X222790605Y-107620823D01*
X222730264Y-107766498D01*
X222730261Y-107766510D01*
X222699500Y-107921153D01*
X222699500Y-108078846D01*
X222730261Y-108233489D01*
X222730264Y-108233501D01*
X222790602Y-108379172D01*
X222790609Y-108379185D01*
X222878210Y-108510288D01*
X222878213Y-108510292D01*
X222989707Y-108621786D01*
X222989711Y-108621789D01*
X223120814Y-108709390D01*
X223120827Y-108709397D01*
X223266498Y-108769735D01*
X223266503Y-108769737D01*
X223421153Y-108800499D01*
X223421156Y-108800500D01*
X223421158Y-108800500D01*
X223578844Y-108800500D01*
X223578845Y-108800499D01*
X223733497Y-108769737D01*
X223879179Y-108709394D01*
X224010289Y-108621789D01*
X224121789Y-108510289D01*
X224209394Y-108379179D01*
X224269737Y-108233497D01*
X224300500Y-108078842D01*
X224300500Y-107921158D01*
X224300500Y-107921155D01*
X224300499Y-107921153D01*
X224269738Y-107766510D01*
X224269737Y-107766503D01*
X224252441Y-107724746D01*
X224209395Y-107620823D01*
X224209390Y-107620814D01*
X224121398Y-107489125D01*
X224100520Y-107422447D01*
X224100500Y-107420234D01*
X224100500Y-106170945D01*
X224100500Y-106170943D01*
X224059577Y-106018216D01*
X224053341Y-106007414D01*
X223980524Y-105881290D01*
X223980521Y-105881286D01*
X223980520Y-105881284D01*
X223868716Y-105769480D01*
X223868715Y-105769479D01*
X223864385Y-105765149D01*
X223864374Y-105765139D01*
X223712809Y-105613574D01*
X223679324Y-105552251D01*
X223678873Y-105550084D01*
X223655700Y-105433590D01*
X223647972Y-105394738D01*
X223609758Y-105302480D01*
X223587632Y-105249062D01*
X223587625Y-105249049D01*
X223500024Y-105117946D01*
X223500021Y-105117942D01*
X223388527Y-105006448D01*
X223388523Y-105006445D01*
X223257420Y-104918844D01*
X223257407Y-104918837D01*
X223111736Y-104858499D01*
X223111726Y-104858496D01*
X222956384Y-104827596D01*
X222894473Y-104795211D01*
X222892895Y-104793660D01*
X222036819Y-103937584D01*
X222003334Y-103876261D01*
X222000500Y-103849903D01*
X222000500Y-101167847D01*
X222020185Y-101100808D01*
X222072989Y-101055053D01*
X222100309Y-101046230D01*
X222118980Y-101042516D01*
X222233497Y-101019737D01*
X222379179Y-100959394D01*
X222510289Y-100871789D01*
X222621789Y-100760289D01*
X222709394Y-100629179D01*
X222769737Y-100483497D01*
X222800500Y-100328842D01*
X222800638Y-100328150D01*
X222833023Y-100266239D01*
X222834517Y-100264717D01*
X223962417Y-99136819D01*
X224023740Y-99103334D01*
X224050098Y-99100500D01*
X226500902Y-99100500D01*
X226567941Y-99120185D01*
X226613696Y-99172989D01*
X226623640Y-99242147D01*
X226594615Y-99305703D01*
X226588583Y-99312181D01*
X225485339Y-100415425D01*
X225424016Y-100448910D01*
X225421850Y-100449361D01*
X225266508Y-100480261D01*
X225266498Y-100480264D01*
X225120827Y-100540602D01*
X225120814Y-100540609D01*
X224989711Y-100628210D01*
X224989707Y-100628213D01*
X224878213Y-100739707D01*
X224878210Y-100739711D01*
X224790609Y-100870814D01*
X224790602Y-100870827D01*
X224730264Y-101016498D01*
X224730261Y-101016510D01*
X224699500Y-101171153D01*
X224699500Y-101328842D01*
X224707124Y-101367174D01*
X224706416Y-101375079D01*
X224709190Y-101382516D01*
X224703346Y-101409378D01*
X224700895Y-101436765D01*
X224695646Y-101444773D01*
X224694338Y-101450789D01*
X224673188Y-101479044D01*
X224570951Y-101581281D01*
X224570950Y-101581281D01*
X224570949Y-101581282D01*
X223819479Y-102332752D01*
X223796489Y-102372573D01*
X223786772Y-102389405D01*
X223740423Y-102469683D01*
X223699499Y-102622411D01*
X223699499Y-102622413D01*
X223699499Y-102790514D01*
X223699500Y-102790527D01*
X223699500Y-103111856D01*
X223699499Y-103111874D01*
X223699499Y-103277580D01*
X223699498Y-103277580D01*
X223724482Y-103370821D01*
X223740423Y-103430311D01*
X223751874Y-103450145D01*
X223769358Y-103480426D01*
X223769359Y-103480430D01*
X223769360Y-103480430D01*
X223792232Y-103520047D01*
X223819479Y-103567240D01*
X223819481Y-103567243D01*
X223938349Y-103686111D01*
X223938355Y-103686116D01*
X224077475Y-103825236D01*
X224110960Y-103886559D01*
X224111411Y-103888725D01*
X224130261Y-103983491D01*
X224130264Y-103983501D01*
X224190602Y-104129172D01*
X224190609Y-104129185D01*
X224278210Y-104260288D01*
X224278213Y-104260292D01*
X224389707Y-104371786D01*
X224389711Y-104371789D01*
X224520814Y-104459390D01*
X224520827Y-104459397D01*
X224664033Y-104518714D01*
X224666503Y-104519737D01*
X224821153Y-104550499D01*
X224821156Y-104550500D01*
X224821158Y-104550500D01*
X224978844Y-104550500D01*
X224978845Y-104550499D01*
X225133497Y-104519737D01*
X225279179Y-104459394D01*
X225410289Y-104371789D01*
X225521789Y-104260289D01*
X225609394Y-104129179D01*
X225669737Y-103983497D01*
X225700500Y-103828842D01*
X225700500Y-103671158D01*
X225700500Y-103671155D01*
X225700499Y-103671153D01*
X225691547Y-103626149D01*
X225669737Y-103516503D01*
X225642251Y-103450145D01*
X225609397Y-103370827D01*
X225609390Y-103370814D01*
X225521789Y-103239711D01*
X225521786Y-103239707D01*
X225410292Y-103128213D01*
X225410288Y-103128210D01*
X225279185Y-103040609D01*
X225279172Y-103040602D01*
X225133499Y-102980263D01*
X225129628Y-102979089D01*
X225071192Y-102940786D01*
X225042741Y-102876972D01*
X225053307Y-102807906D01*
X225077949Y-102772753D01*
X225263887Y-102586816D01*
X225325210Y-102553331D01*
X225351568Y-102550497D01*
X225963334Y-102550497D01*
X225963350Y-102550498D01*
X225970946Y-102550498D01*
X226129057Y-102550498D01*
X226129060Y-102550498D01*
X226281788Y-102509574D01*
X226350879Y-102469684D01*
X226418719Y-102430517D01*
X226530523Y-102318713D01*
X226530523Y-102318711D01*
X226540727Y-102308508D01*
X226540730Y-102308503D01*
X228187820Y-100661413D01*
X228249142Y-100627930D01*
X228318834Y-100632914D01*
X228374767Y-100674786D01*
X228399184Y-100740250D01*
X228399500Y-100749096D01*
X228399500Y-101699902D01*
X228379815Y-101766941D01*
X228363181Y-101787583D01*
X227985339Y-102165425D01*
X227924016Y-102198910D01*
X227921850Y-102199361D01*
X227766508Y-102230261D01*
X227766498Y-102230264D01*
X227620827Y-102290602D01*
X227620814Y-102290609D01*
X227489711Y-102378210D01*
X227489707Y-102378213D01*
X227378213Y-102489707D01*
X227378210Y-102489711D01*
X227290609Y-102620814D01*
X227290602Y-102620827D01*
X227230264Y-102766498D01*
X227230261Y-102766510D01*
X227199500Y-102921153D01*
X227199500Y-103078846D01*
X227230261Y-103233489D01*
X227230264Y-103233501D01*
X227290602Y-103379172D01*
X227290609Y-103379185D01*
X227366051Y-103492091D01*
X227386929Y-103558769D01*
X227368445Y-103626149D01*
X227350630Y-103648663D01*
X226769481Y-104229811D01*
X226769479Y-104229814D01*
X226753280Y-104257871D01*
X226737081Y-104285930D01*
X226690423Y-104366744D01*
X226649499Y-104519472D01*
X226649499Y-104519474D01*
X226649499Y-104687575D01*
X226649500Y-104687588D01*
X226649500Y-107269359D01*
X226649499Y-107269377D01*
X226649499Y-107435083D01*
X226649498Y-107435083D01*
X226688018Y-107578842D01*
X226690423Y-107587814D01*
X226709480Y-107620821D01*
X226769479Y-107724743D01*
X226769481Y-107724746D01*
X226888349Y-107843614D01*
X226888355Y-107843619D01*
X228909110Y-109864374D01*
X228909120Y-109864385D01*
X228913450Y-109868715D01*
X228913451Y-109868716D01*
X229025255Y-109980520D01*
X229076816Y-110010288D01*
X229112066Y-110030639D01*
X229112068Y-110030641D01*
X229132638Y-110042517D01*
X229162186Y-110059577D01*
X229314914Y-110100501D01*
X229314917Y-110100501D01*
X229480624Y-110100501D01*
X229480640Y-110100500D01*
X230670234Y-110100500D01*
X230737273Y-110120185D01*
X230739125Y-110121398D01*
X230870814Y-110209390D01*
X230870827Y-110209397D01*
X231016498Y-110269735D01*
X231016503Y-110269737D01*
X231171153Y-110300499D01*
X231171156Y-110300500D01*
X231171158Y-110300500D01*
X231328844Y-110300500D01*
X231328845Y-110300499D01*
X231483497Y-110269737D01*
X231629179Y-110209394D01*
X231760289Y-110121789D01*
X231871789Y-110010289D01*
X231959394Y-109879179D01*
X232019737Y-109733497D01*
X232050500Y-109578842D01*
X232050500Y-109421158D01*
X232050500Y-109421155D01*
X232050499Y-109421153D01*
X232019738Y-109266510D01*
X232019737Y-109266503D01*
X232019735Y-109266498D01*
X231959397Y-109120827D01*
X231959390Y-109120814D01*
X231871789Y-108989711D01*
X231871786Y-108989707D01*
X231760292Y-108878213D01*
X231760288Y-108878210D01*
X231629185Y-108790609D01*
X231629172Y-108790602D01*
X231483501Y-108730264D01*
X231483489Y-108730261D01*
X231328845Y-108699500D01*
X231328842Y-108699500D01*
X231171158Y-108699500D01*
X231171155Y-108699500D01*
X231016510Y-108730261D01*
X231016498Y-108730264D01*
X230870827Y-108790602D01*
X230870814Y-108790609D01*
X230739125Y-108878602D01*
X230672447Y-108899480D01*
X230670234Y-108899500D01*
X229694068Y-108899500D01*
X229627029Y-108879815D01*
X229606387Y-108863181D01*
X228891869Y-108148663D01*
X228858384Y-108087340D01*
X228863368Y-108017648D01*
X228876446Y-107992094D01*
X228951894Y-107879179D01*
X229012237Y-107733497D01*
X229043000Y-107578842D01*
X229043000Y-107421158D01*
X229043000Y-107421155D01*
X229042999Y-107421153D01*
X229014319Y-107276972D01*
X229012237Y-107266503D01*
X229012232Y-107266492D01*
X229010469Y-107260676D01*
X229013220Y-107259841D01*
X229006997Y-107202641D01*
X229038191Y-107140122D01*
X229098234Y-107104392D01*
X229129055Y-107100500D01*
X230346973Y-107100500D01*
X230505088Y-107100501D01*
X230657815Y-107059577D01*
X230794747Y-106980520D01*
X231127925Y-106647341D01*
X231189246Y-106613858D01*
X231191413Y-106613407D01*
X231249348Y-106601882D01*
X231346760Y-106582506D01*
X231492442Y-106522163D01*
X231623552Y-106434558D01*
X231735052Y-106323058D01*
X231822657Y-106191948D01*
X231831358Y-106170943D01*
X231844508Y-106139194D01*
X231883000Y-106046266D01*
X231913763Y-105891611D01*
X231913763Y-105733927D01*
X231913763Y-105733924D01*
X231887362Y-105601201D01*
X231893589Y-105531609D01*
X231936452Y-105476432D01*
X232002341Y-105453187D01*
X232070338Y-105469255D01*
X232118854Y-105519534D01*
X232123540Y-105529557D01*
X232164801Y-105629172D01*
X232164808Y-105629185D01*
X232252409Y-105760288D01*
X232252412Y-105760292D01*
X232363906Y-105871786D01*
X232363910Y-105871789D01*
X232495013Y-105959390D01*
X232495026Y-105959397D01*
X232610951Y-106007414D01*
X232640702Y-106019737D01*
X232782196Y-106047882D01*
X232795352Y-106050499D01*
X232795355Y-106050500D01*
X232795357Y-106050500D01*
X232953043Y-106050500D01*
X232953044Y-106050499D01*
X233107696Y-106019737D01*
X233253378Y-105959394D01*
X233384488Y-105871789D01*
X233495988Y-105760289D01*
X233583593Y-105629179D01*
X233643936Y-105483497D01*
X233674699Y-105328842D01*
X233674699Y-105171158D01*
X233674699Y-105171155D01*
X233674698Y-105171153D01*
X233664114Y-105117946D01*
X233643936Y-105016503D01*
X233603485Y-104918844D01*
X233583596Y-104870827D01*
X233583589Y-104870814D01*
X233495597Y-104739125D01*
X233474719Y-104672447D01*
X233474699Y-104670234D01*
X233474699Y-103117508D01*
X233494384Y-103050469D01*
X233547188Y-103004714D01*
X233574508Y-102995891D01*
X233590490Y-102992711D01*
X233707696Y-102969398D01*
X233853378Y-102909055D01*
X233984488Y-102821450D01*
X234095988Y-102709950D01*
X234183593Y-102578840D01*
X234243936Y-102433158D01*
X234274699Y-102278503D01*
X234274699Y-102120819D01*
X234274699Y-102120816D01*
X234274698Y-102120814D01*
X234243937Y-101966171D01*
X234243936Y-101966164D01*
X234243934Y-101966159D01*
X234183596Y-101820488D01*
X234183589Y-101820475D01*
X234095597Y-101688786D01*
X234074719Y-101622108D01*
X234074699Y-101619895D01*
X234074699Y-101325897D01*
X234094384Y-101258858D01*
X234111013Y-101238220D01*
X235108506Y-100240727D01*
X235108511Y-100240724D01*
X235118714Y-100230520D01*
X235118716Y-100230520D01*
X235230520Y-100118716D01*
X235289532Y-100016503D01*
X235309577Y-99981785D01*
X235350500Y-99829057D01*
X235350500Y-99821153D01*
X245799500Y-99821153D01*
X245799500Y-99978846D01*
X245830261Y-100133489D01*
X245830264Y-100133501D01*
X245890602Y-100279172D01*
X245890609Y-100279185D01*
X245978210Y-100410288D01*
X245978213Y-100410292D01*
X246089707Y-100521786D01*
X246089711Y-100521789D01*
X246220814Y-100609390D01*
X246220827Y-100609397D01*
X246366498Y-100669735D01*
X246366503Y-100669737D01*
X246480422Y-100692397D01*
X246521153Y-100700499D01*
X246521156Y-100700500D01*
X246521158Y-100700500D01*
X246678844Y-100700500D01*
X246678845Y-100700499D01*
X246833497Y-100669737D01*
X246979179Y-100609394D01*
X247110289Y-100521789D01*
X247221789Y-100410289D01*
X247309394Y-100279179D01*
X247369737Y-100133497D01*
X247400500Y-99978842D01*
X247400500Y-99821158D01*
X247400500Y-99821155D01*
X247400499Y-99821153D01*
X247368549Y-99660528D01*
X247370963Y-99660047D01*
X247370440Y-99600994D01*
X247402039Y-99547194D01*
X249214662Y-97734572D01*
X249275983Y-97701089D01*
X249278150Y-97700638D01*
X249336085Y-97689113D01*
X249433497Y-97669737D01*
X249579179Y-97609394D01*
X249710289Y-97521789D01*
X249821789Y-97410289D01*
X249909394Y-97279179D01*
X249969737Y-97133497D01*
X250000500Y-96978842D01*
X250000500Y-96821158D01*
X250000500Y-96821155D01*
X250000499Y-96821153D01*
X249992569Y-96781286D01*
X249969737Y-96666503D01*
X249969735Y-96666498D01*
X249909397Y-96520827D01*
X249909390Y-96520814D01*
X249821789Y-96389711D01*
X249821786Y-96389707D01*
X249710292Y-96278213D01*
X249710288Y-96278210D01*
X249579185Y-96190609D01*
X249579172Y-96190602D01*
X249433501Y-96130264D01*
X249433489Y-96130261D01*
X249278845Y-96099500D01*
X249278842Y-96099500D01*
X249121158Y-96099500D01*
X249121155Y-96099500D01*
X248966510Y-96130261D01*
X248966498Y-96130264D01*
X248820827Y-96190602D01*
X248820814Y-96190609D01*
X248689711Y-96278210D01*
X248689707Y-96278213D01*
X248578213Y-96389707D01*
X248578210Y-96389711D01*
X248490609Y-96520814D01*
X248490602Y-96520827D01*
X248430264Y-96666498D01*
X248430261Y-96666508D01*
X248399361Y-96821850D01*
X248366976Y-96883761D01*
X248365425Y-96885339D01*
X246119481Y-99131282D01*
X246119479Y-99131284D01*
X246096583Y-99170943D01*
X246085231Y-99190606D01*
X246040423Y-99268215D01*
X246024740Y-99326739D01*
X246020648Y-99335846D01*
X246007915Y-99350719D01*
X245995230Y-99372691D01*
X245978213Y-99389708D01*
X245978208Y-99389714D01*
X245890609Y-99520814D01*
X245890602Y-99520827D01*
X245830264Y-99666498D01*
X245830261Y-99666510D01*
X245799500Y-99821153D01*
X235350500Y-99821153D01*
X235350500Y-99670943D01*
X235350500Y-99670942D01*
X235350500Y-99339060D01*
X235350501Y-99339047D01*
X235350501Y-99170944D01*
X235339874Y-99131284D01*
X235309577Y-99018216D01*
X235251400Y-98917449D01*
X235230524Y-98881290D01*
X235230518Y-98881282D01*
X233136819Y-96787583D01*
X233103334Y-96726260D01*
X233100500Y-96699902D01*
X233100500Y-96079061D01*
X233100501Y-96079058D01*
X233100501Y-95920943D01*
X233100500Y-95920939D01*
X233100500Y-95879864D01*
X233059577Y-95727137D01*
X233051009Y-95712297D01*
X232980524Y-95590211D01*
X232980518Y-95590203D01*
X232868717Y-95478402D01*
X232868712Y-95478398D01*
X232785657Y-95430447D01*
X232759976Y-95410741D01*
X231987590Y-94638355D01*
X231987588Y-94638352D01*
X231868717Y-94519481D01*
X231868716Y-94519480D01*
X231774753Y-94465231D01*
X231774752Y-94465230D01*
X231731783Y-94440422D01*
X231675881Y-94425443D01*
X231579057Y-94399499D01*
X231420943Y-94399499D01*
X231413347Y-94399499D01*
X231413331Y-94399500D01*
X229948382Y-94399500D01*
X229936866Y-94396118D01*
X229924918Y-94397260D01*
X229903960Y-94386456D01*
X229881343Y-94379815D01*
X229871931Y-94369945D01*
X229862814Y-94365245D01*
X229841004Y-94337512D01*
X229840996Y-94337503D01*
X229809998Y-94283813D01*
X229780520Y-94232755D01*
X229668716Y-94120951D01*
X229668715Y-94120950D01*
X229664385Y-94116620D01*
X229664374Y-94116610D01*
X229436119Y-93888355D01*
X229429050Y-93881286D01*
X229429049Y-93881284D01*
X229344130Y-93796365D01*
X229314526Y-93742147D01*
X229310648Y-93735045D01*
X229307814Y-93708687D01*
X229307814Y-92896476D01*
X229327499Y-92829437D01*
X229328712Y-92827585D01*
X229371420Y-92763669D01*
X229425033Y-92718864D01*
X229474522Y-92708560D01*
X229486904Y-92708560D01*
X229486905Y-92708559D01*
X229641557Y-92677797D01*
X229787239Y-92617454D01*
X229918349Y-92529849D01*
X230029849Y-92418349D01*
X230117454Y-92287239D01*
X230177797Y-92141557D01*
X230208560Y-91986902D01*
X230208560Y-91829218D01*
X230208560Y-91829215D01*
X230208559Y-91829213D01*
X230177797Y-91674563D01*
X230155981Y-91621893D01*
X230117457Y-91528887D01*
X230117450Y-91528874D01*
X230029458Y-91397185D01*
X230008580Y-91330507D01*
X230008560Y-91328294D01*
X230008560Y-87497120D01*
X230008561Y-87497107D01*
X230008561Y-87329004D01*
X229993004Y-87270945D01*
X229967637Y-87176276D01*
X229934115Y-87118214D01*
X229888584Y-87039350D01*
X229888578Y-87039342D01*
X229318717Y-86469481D01*
X229318712Y-86469477D01*
X229287500Y-86451457D01*
X229239284Y-86400890D01*
X229225500Y-86344070D01*
X229225500Y-86271155D01*
X229225499Y-86271153D01*
X229200822Y-86147095D01*
X229194737Y-86116503D01*
X229194735Y-86116498D01*
X229134397Y-85970827D01*
X229134390Y-85970814D01*
X229046789Y-85839711D01*
X229046786Y-85839707D01*
X228935292Y-85728213D01*
X228935288Y-85728210D01*
X228804185Y-85640609D01*
X228804176Y-85640604D01*
X228677047Y-85587946D01*
X228622644Y-85544105D01*
X228600579Y-85477811D01*
X228600500Y-85473385D01*
X228600500Y-84474500D01*
X228620185Y-84407461D01*
X228672989Y-84361706D01*
X228724500Y-84350500D01*
X229424903Y-84350500D01*
X229491942Y-84370185D01*
X229512584Y-84386819D01*
X230640425Y-85514660D01*
X230673910Y-85575983D01*
X230674361Y-85578149D01*
X230705261Y-85733491D01*
X230705264Y-85733501D01*
X230765602Y-85879172D01*
X230765609Y-85879185D01*
X230853210Y-86010288D01*
X230853213Y-86010292D01*
X230964707Y-86121786D01*
X230964711Y-86121789D01*
X231095814Y-86209390D01*
X231095827Y-86209397D01*
X231204425Y-86254379D01*
X231241503Y-86269737D01*
X231396153Y-86300499D01*
X231396156Y-86300500D01*
X231396158Y-86300500D01*
X231553844Y-86300500D01*
X231553845Y-86300499D01*
X231708497Y-86269737D01*
X231803048Y-86230572D01*
X231872517Y-86223104D01*
X231934996Y-86254379D01*
X231970648Y-86314468D01*
X231974500Y-86345134D01*
X231974500Y-86872972D01*
X231974499Y-86872990D01*
X231974499Y-87038696D01*
X231974498Y-87038696D01*
X232015422Y-87191425D01*
X232020662Y-87200501D01*
X232094477Y-87328354D01*
X232094481Y-87328359D01*
X232213349Y-87447227D01*
X232213355Y-87447232D01*
X234228526Y-89462403D01*
X234228536Y-89462414D01*
X234232866Y-89466744D01*
X234232867Y-89466745D01*
X234344671Y-89578549D01*
X234396232Y-89608317D01*
X234431482Y-89628668D01*
X234431484Y-89628670D01*
X234468595Y-89650096D01*
X234481602Y-89657606D01*
X234634330Y-89698530D01*
X234634333Y-89698530D01*
X234800040Y-89698530D01*
X234800056Y-89698529D01*
X235145234Y-89698529D01*
X235212273Y-89718214D01*
X235214125Y-89719427D01*
X235345814Y-89807419D01*
X235345827Y-89807426D01*
X235482143Y-89863889D01*
X235491503Y-89867766D01*
X235646153Y-89898528D01*
X235646156Y-89898529D01*
X235646158Y-89898529D01*
X235803844Y-89898529D01*
X235803845Y-89898528D01*
X235958497Y-89867766D01*
X236104179Y-89807423D01*
X236235289Y-89719818D01*
X236346789Y-89608318D01*
X236434394Y-89477208D01*
X236494737Y-89331526D01*
X236525500Y-89176871D01*
X236525500Y-89019187D01*
X236525500Y-89019184D01*
X236525499Y-89019182D01*
X236519458Y-88988810D01*
X236494737Y-88864532D01*
X236480649Y-88830520D01*
X236434397Y-88718856D01*
X236434390Y-88718843D01*
X236346789Y-88587740D01*
X236346786Y-88587736D01*
X236235292Y-88476242D01*
X236235288Y-88476239D01*
X236104185Y-88388638D01*
X236104172Y-88388631D01*
X235958501Y-88328293D01*
X235958489Y-88328290D01*
X235803845Y-88297529D01*
X235803842Y-88297529D01*
X235646158Y-88297529D01*
X235646153Y-88297529D01*
X235612305Y-88304262D01*
X235542713Y-88298035D01*
X235487536Y-88255172D01*
X235464292Y-88189282D01*
X235464114Y-88182645D01*
X235464114Y-88120882D01*
X235464113Y-88120880D01*
X235455501Y-88077583D01*
X235433351Y-87966230D01*
X235415693Y-87923599D01*
X235373011Y-87820554D01*
X235373004Y-87820541D01*
X235285012Y-87688852D01*
X235279361Y-87670805D01*
X235269137Y-87654896D01*
X235264685Y-87623934D01*
X235264134Y-87622174D01*
X235264114Y-87619961D01*
X235264114Y-87537953D01*
X235283799Y-87470914D01*
X235300433Y-87450272D01*
X237265596Y-85485109D01*
X237326919Y-85451624D01*
X237396611Y-85456608D01*
X237452544Y-85498480D01*
X237476961Y-85563944D01*
X237477277Y-85572790D01*
X237477277Y-90320234D01*
X237457592Y-90387273D01*
X237456379Y-90389125D01*
X237368386Y-90520814D01*
X237368379Y-90520827D01*
X237308041Y-90666498D01*
X237308038Y-90666510D01*
X237277277Y-90821153D01*
X237277277Y-90978846D01*
X237308038Y-91133489D01*
X237308041Y-91133501D01*
X237368379Y-91279172D01*
X237368386Y-91279185D01*
X237443827Y-91392090D01*
X237464705Y-91458768D01*
X237446220Y-91526148D01*
X237428406Y-91548662D01*
X236613890Y-92363181D01*
X236552567Y-92396666D01*
X236526209Y-92399500D01*
X233086670Y-92399500D01*
X233086654Y-92399499D01*
X233079058Y-92399499D01*
X232920943Y-92399499D01*
X232850584Y-92418352D01*
X232768214Y-92440423D01*
X232768209Y-92440426D01*
X232631290Y-92519475D01*
X232631286Y-92519478D01*
X232485337Y-92665427D01*
X232424014Y-92698911D01*
X232421848Y-92699362D01*
X232266508Y-92730261D01*
X232266498Y-92730264D01*
X232120827Y-92790602D01*
X232120814Y-92790609D01*
X231989711Y-92878210D01*
X231989707Y-92878213D01*
X231878213Y-92989707D01*
X231878210Y-92989711D01*
X231790609Y-93120814D01*
X231790602Y-93120827D01*
X231730264Y-93266498D01*
X231730261Y-93266510D01*
X231699500Y-93421153D01*
X231699500Y-93578846D01*
X231730261Y-93733489D01*
X231730264Y-93733501D01*
X231790602Y-93879172D01*
X231790609Y-93879185D01*
X231878210Y-94010288D01*
X231878213Y-94010292D01*
X231989707Y-94121786D01*
X231989711Y-94121789D01*
X232120814Y-94209390D01*
X232120827Y-94209397D01*
X232266498Y-94269735D01*
X232266503Y-94269737D01*
X232421153Y-94300499D01*
X232421156Y-94300500D01*
X232421158Y-94300500D01*
X232578844Y-94300500D01*
X232578845Y-94300499D01*
X232733497Y-94269737D01*
X232879179Y-94209394D01*
X233010289Y-94121789D01*
X233121789Y-94010289D01*
X233209394Y-93879179D01*
X233269737Y-93733497D01*
X233274672Y-93708687D01*
X233276339Y-93700309D01*
X233308724Y-93638398D01*
X233369439Y-93603824D01*
X233397956Y-93600500D01*
X234424678Y-93600500D01*
X234491717Y-93620185D01*
X234537472Y-93672989D01*
X234547416Y-93742147D01*
X234544455Y-93756580D01*
X234528346Y-93816702D01*
X234528346Y-93816704D01*
X234528346Y-93984805D01*
X234528347Y-93984818D01*
X234528347Y-94306147D01*
X234528346Y-94306165D01*
X234528346Y-94471871D01*
X234528345Y-94471871D01*
X234528346Y-94471874D01*
X234569270Y-94624602D01*
X234596025Y-94670943D01*
X234648324Y-94761529D01*
X234648328Y-94761534D01*
X234767196Y-94880402D01*
X234767202Y-94880407D01*
X234888315Y-95001520D01*
X234921800Y-95062843D01*
X234924036Y-95077042D01*
X234924498Y-95081739D01*
X234955261Y-95236389D01*
X234955264Y-95236401D01*
X235015602Y-95382072D01*
X235015609Y-95382085D01*
X235103210Y-95513188D01*
X235103213Y-95513192D01*
X235214707Y-95624686D01*
X235214711Y-95624689D01*
X235345814Y-95712290D01*
X235345827Y-95712297D01*
X235457764Y-95758662D01*
X235491503Y-95772637D01*
X235646153Y-95803399D01*
X235646156Y-95803400D01*
X235646158Y-95803400D01*
X235803844Y-95803400D01*
X235803845Y-95803399D01*
X235958497Y-95772637D01*
X236104179Y-95712294D01*
X236235289Y-95624689D01*
X236346789Y-95513189D01*
X236434394Y-95382079D01*
X236494737Y-95236397D01*
X236525500Y-95081742D01*
X236525500Y-95081739D01*
X236525637Y-95081052D01*
X236558021Y-95019141D01*
X236559462Y-95017673D01*
X236664132Y-94913004D01*
X236694567Y-94860289D01*
X236725456Y-94806788D01*
X236776023Y-94758572D01*
X236832843Y-94744788D01*
X237984756Y-94744788D01*
X238051795Y-94764473D01*
X238087858Y-94799897D01*
X238128210Y-94860288D01*
X238128213Y-94860292D01*
X238239707Y-94971786D01*
X238239711Y-94971789D01*
X238370814Y-95059390D01*
X238370827Y-95059397D01*
X238516498Y-95119735D01*
X238516503Y-95119737D01*
X238671153Y-95150499D01*
X238671156Y-95150500D01*
X238671158Y-95150500D01*
X238828844Y-95150500D01*
X238828845Y-95150499D01*
X238983497Y-95119737D01*
X239129179Y-95059394D01*
X239260289Y-94971789D01*
X239371789Y-94860289D01*
X239459394Y-94729179D01*
X239519737Y-94583497D01*
X239550500Y-94428842D01*
X239550500Y-94271158D01*
X239550500Y-94271155D01*
X239550499Y-94271153D01*
X239520788Y-94121789D01*
X239519737Y-94116503D01*
X239519735Y-94116498D01*
X239459397Y-93970827D01*
X239459390Y-93970814D01*
X239371789Y-93839711D01*
X239371786Y-93839707D01*
X239260292Y-93728213D01*
X239260288Y-93728210D01*
X239129185Y-93640609D01*
X239129172Y-93640602D01*
X238983501Y-93580264D01*
X238983489Y-93580261D01*
X238828845Y-93549500D01*
X238828842Y-93549500D01*
X238671158Y-93549500D01*
X238665439Y-93549500D01*
X238658445Y-93549740D01*
X238643976Y-93549315D01*
X238623345Y-93543787D01*
X238465231Y-93543787D01*
X238465227Y-93543788D01*
X237996800Y-93543788D01*
X237929761Y-93524103D01*
X237884006Y-93471299D01*
X237874062Y-93402141D01*
X237903087Y-93338585D01*
X237909119Y-93332107D01*
X238906653Y-92334573D01*
X239820073Y-91421153D01*
X240949500Y-91421153D01*
X240949500Y-91578846D01*
X240980261Y-91733489D01*
X240980264Y-91733501D01*
X241040602Y-91879172D01*
X241040609Y-91879185D01*
X241128210Y-92010288D01*
X241128213Y-92010292D01*
X241239707Y-92121786D01*
X241239711Y-92121789D01*
X241370814Y-92209390D01*
X241370827Y-92209397D01*
X241516498Y-92269735D01*
X241516503Y-92269737D01*
X241671153Y-92300499D01*
X241671156Y-92300500D01*
X241671158Y-92300500D01*
X241828844Y-92300500D01*
X241828845Y-92300499D01*
X241983497Y-92269737D01*
X242096166Y-92223067D01*
X242129172Y-92209397D01*
X242129172Y-92209396D01*
X242129179Y-92209394D01*
X242260289Y-92121789D01*
X242371789Y-92010289D01*
X242459394Y-91879179D01*
X242519737Y-91733497D01*
X242541938Y-91621888D01*
X242550638Y-91578151D01*
X242583023Y-91516240D01*
X242584510Y-91514724D01*
X242730520Y-91368716D01*
X242809577Y-91231784D01*
X242850501Y-91079057D01*
X242850501Y-90920942D01*
X242850501Y-90913347D01*
X242850500Y-90913329D01*
X242850500Y-90479765D01*
X242870185Y-90412726D01*
X242871398Y-90410874D01*
X242959390Y-90279185D01*
X242959390Y-90279184D01*
X242959394Y-90279179D01*
X243019737Y-90133497D01*
X243050500Y-89978842D01*
X243050500Y-89821158D01*
X243050500Y-89821155D01*
X243050499Y-89821153D01*
X243019737Y-89666503D01*
X243004066Y-89628670D01*
X242959397Y-89520827D01*
X242959390Y-89520814D01*
X242871789Y-89389711D01*
X242871786Y-89389707D01*
X242760292Y-89278213D01*
X242760288Y-89278210D01*
X242629185Y-89190609D01*
X242629172Y-89190602D01*
X242483501Y-89130264D01*
X242483489Y-89130261D01*
X242328845Y-89099500D01*
X242328842Y-89099500D01*
X242171158Y-89099500D01*
X242171155Y-89099500D01*
X242016510Y-89130261D01*
X242016498Y-89130264D01*
X241870827Y-89190602D01*
X241870814Y-89190609D01*
X241739711Y-89278210D01*
X241739707Y-89278213D01*
X241628213Y-89389707D01*
X241628210Y-89389711D01*
X241540609Y-89520814D01*
X241540602Y-89520827D01*
X241480264Y-89666498D01*
X241480261Y-89666510D01*
X241449500Y-89821153D01*
X241449500Y-89978846D01*
X241480261Y-90133489D01*
X241480264Y-90133501D01*
X241540602Y-90279172D01*
X241540609Y-90279185D01*
X241628602Y-90410874D01*
X241634252Y-90428920D01*
X241644477Y-90444830D01*
X241648928Y-90475789D01*
X241649480Y-90477551D01*
X241649500Y-90479765D01*
X241649500Y-90602044D01*
X241629815Y-90669083D01*
X241577011Y-90714838D01*
X241549691Y-90723661D01*
X241516510Y-90730261D01*
X241516498Y-90730264D01*
X241370827Y-90790602D01*
X241370814Y-90790609D01*
X241239711Y-90878210D01*
X241239707Y-90878213D01*
X241128213Y-90989707D01*
X241128210Y-90989711D01*
X241040609Y-91120814D01*
X241040602Y-91120827D01*
X240980264Y-91266498D01*
X240980261Y-91266510D01*
X240949500Y-91421153D01*
X239820073Y-91421153D01*
X240508506Y-90732720D01*
X240508511Y-90732716D01*
X240518714Y-90722512D01*
X240518716Y-90722512D01*
X240630520Y-90610708D01*
X240709577Y-90473776D01*
X240750500Y-90321049D01*
X240750500Y-89650096D01*
X240770185Y-89583057D01*
X240786814Y-89562420D01*
X244358506Y-85990727D01*
X244358511Y-85990724D01*
X244368714Y-85980520D01*
X244368716Y-85980520D01*
X244480520Y-85868716D01*
X244535472Y-85773535D01*
X244559577Y-85731785D01*
X244600500Y-85579058D01*
X244600500Y-85420943D01*
X244600500Y-84800097D01*
X244620185Y-84733058D01*
X244636819Y-84712416D01*
X245537819Y-83811416D01*
X245599142Y-83777931D01*
X245668834Y-83782915D01*
X245724767Y-83824787D01*
X245749184Y-83890251D01*
X245749500Y-83899097D01*
X245749500Y-90776235D01*
X245729815Y-90843274D01*
X245677011Y-90889029D01*
X245625500Y-90900235D01*
X245470420Y-90900235D01*
X245315775Y-90930996D01*
X245315763Y-90930999D01*
X245170092Y-90991337D01*
X245170079Y-90991344D01*
X245038976Y-91078945D01*
X245038972Y-91078948D01*
X244927478Y-91190442D01*
X244927475Y-91190446D01*
X244839874Y-91321549D01*
X244839867Y-91321562D01*
X244779529Y-91467233D01*
X244779526Y-91467245D01*
X244748765Y-91621888D01*
X244748765Y-91779581D01*
X244779526Y-91934224D01*
X244779529Y-91934236D01*
X244839867Y-92079907D01*
X244839874Y-92079920D01*
X244927867Y-92211609D01*
X244948745Y-92278286D01*
X244948765Y-92280500D01*
X244948765Y-93650638D01*
X244929080Y-93717677D01*
X244912446Y-93738319D01*
X244436074Y-94214690D01*
X244374751Y-94248175D01*
X244372585Y-94248626D01*
X244217243Y-94279526D01*
X244217233Y-94279529D01*
X244071562Y-94339867D01*
X244071549Y-94339874D01*
X243940446Y-94427475D01*
X243940442Y-94427478D01*
X243828948Y-94538972D01*
X243828945Y-94538976D01*
X243741344Y-94670079D01*
X243741337Y-94670092D01*
X243680999Y-94815763D01*
X243680996Y-94815775D01*
X243650235Y-94970418D01*
X243650235Y-95128111D01*
X243680996Y-95282754D01*
X243680999Y-95282766D01*
X243741337Y-95428437D01*
X243741344Y-95428450D01*
X243828945Y-95559553D01*
X243828948Y-95559557D01*
X243940442Y-95671051D01*
X243940446Y-95671054D01*
X244071549Y-95758655D01*
X244071562Y-95758662D01*
X244158965Y-95794864D01*
X244217238Y-95819002D01*
X244247424Y-95825006D01*
X244309334Y-95857389D01*
X244337795Y-95899171D01*
X244376693Y-95993081D01*
X244376700Y-95993094D01*
X244464301Y-96124197D01*
X244464304Y-96124201D01*
X244575801Y-96235698D01*
X244639427Y-96278211D01*
X244706912Y-96323303D01*
X244706918Y-96323305D01*
X244706919Y-96323306D01*
X244722952Y-96329947D01*
X244777356Y-96373787D01*
X244799421Y-96440081D01*
X244799500Y-96444508D01*
X244799500Y-96478846D01*
X244830261Y-96633489D01*
X244830264Y-96633501D01*
X244890602Y-96779172D01*
X244890609Y-96779185D01*
X244978210Y-96910288D01*
X244978213Y-96910292D01*
X245089707Y-97021786D01*
X245089711Y-97021789D01*
X245220814Y-97109390D01*
X245220827Y-97109397D01*
X245366498Y-97169735D01*
X245366503Y-97169737D01*
X245451181Y-97186580D01*
X245513090Y-97218964D01*
X245541549Y-97260745D01*
X245590602Y-97379172D01*
X245590609Y-97379185D01*
X245678210Y-97510288D01*
X245678213Y-97510292D01*
X245789707Y-97621786D01*
X245789711Y-97621789D01*
X245920814Y-97709390D01*
X245920827Y-97709397D01*
X245981611Y-97734574D01*
X246066503Y-97769737D01*
X246221153Y-97800499D01*
X246221156Y-97800500D01*
X246221158Y-97800500D01*
X246378844Y-97800500D01*
X246378845Y-97800499D01*
X246533497Y-97769737D01*
X246679179Y-97709394D01*
X246810289Y-97621789D01*
X246921789Y-97510289D01*
X247009394Y-97379179D01*
X247013728Y-97368717D01*
X247023067Y-97346166D01*
X247069737Y-97233497D01*
X247094424Y-97109390D01*
X247100638Y-97078150D01*
X247133023Y-97016239D01*
X247134524Y-97014710D01*
X247408506Y-96740727D01*
X247408511Y-96740724D01*
X247418714Y-96730520D01*
X247418716Y-96730520D01*
X247530520Y-96618716D01*
X247594380Y-96508106D01*
X247609577Y-96481785D01*
X247650500Y-96329057D01*
X247650500Y-96170943D01*
X247650500Y-78024139D01*
X247650501Y-78024136D01*
X247650500Y-77866022D01*
X247609577Y-77713294D01*
X247561639Y-77630263D01*
X247530520Y-77576363D01*
X247418716Y-77464559D01*
X247418715Y-77464558D01*
X247414385Y-77460228D01*
X247414374Y-77460218D01*
X239728743Y-69774588D01*
X238605772Y-68651617D01*
X243210000Y-68651617D01*
X243210000Y-68848382D01*
X243240778Y-69042705D01*
X243301581Y-69229835D01*
X243390904Y-69405143D01*
X243475832Y-69522034D01*
X243475833Y-69522035D01*
X243943124Y-69054743D01*
X243979881Y-69118408D01*
X244091592Y-69230119D01*
X244155255Y-69266875D01*
X243687963Y-69734166D01*
X243804858Y-69819095D01*
X243804864Y-69819099D01*
X243980164Y-69908418D01*
X244167294Y-69969221D01*
X244361618Y-70000000D01*
X244558382Y-70000000D01*
X244752705Y-69969221D01*
X244939835Y-69908418D01*
X245115143Y-69819095D01*
X245232034Y-69734166D01*
X244764743Y-69266875D01*
X244828408Y-69230119D01*
X244940119Y-69118408D01*
X244976875Y-69054744D01*
X245471419Y-69549288D01*
X245504904Y-69610611D01*
X245507096Y-69624365D01*
X245510001Y-69652797D01*
X245510001Y-69652799D01*
X245560337Y-69804702D01*
X245565186Y-69819334D01*
X245657288Y-69968656D01*
X245781344Y-70092712D01*
X245930666Y-70184814D01*
X246097203Y-70239999D01*
X246199991Y-70250500D01*
X247800008Y-70250499D01*
X247902797Y-70239999D01*
X248069334Y-70184814D01*
X248218656Y-70092712D01*
X248342712Y-69968656D01*
X248434814Y-69819334D01*
X248489999Y-69652797D01*
X248500500Y-69550009D01*
X248500499Y-67949992D01*
X248489999Y-67847203D01*
X248434814Y-67680666D01*
X248342712Y-67531344D01*
X248218656Y-67407288D01*
X248109867Y-67340187D01*
X248069336Y-67315187D01*
X248069331Y-67315185D01*
X248067862Y-67314698D01*
X247902797Y-67260001D01*
X247902795Y-67260000D01*
X247800010Y-67249500D01*
X246199998Y-67249500D01*
X246199981Y-67249501D01*
X246097203Y-67260000D01*
X246097200Y-67260001D01*
X245930668Y-67315185D01*
X245930663Y-67315187D01*
X245781342Y-67407289D01*
X245657289Y-67531342D01*
X245565187Y-67680663D01*
X245565185Y-67680668D01*
X245565106Y-67680907D01*
X245510001Y-67847203D01*
X245510001Y-67847204D01*
X245510000Y-67847204D01*
X245507096Y-67875634D01*
X245480698Y-67940325D01*
X245471419Y-67950710D01*
X244976875Y-68445255D01*
X244940119Y-68381592D01*
X244828408Y-68269881D01*
X244764744Y-68233124D01*
X245232035Y-67765833D01*
X245232034Y-67765832D01*
X245115143Y-67680904D01*
X244939835Y-67591581D01*
X244752705Y-67530778D01*
X244558382Y-67500000D01*
X244361618Y-67500000D01*
X244167294Y-67530778D01*
X243980164Y-67591581D01*
X243804855Y-67680905D01*
X243804852Y-67680907D01*
X243687964Y-67765832D01*
X243687963Y-67765832D01*
X244155255Y-68233124D01*
X244091592Y-68269881D01*
X243979881Y-68381592D01*
X243943124Y-68445255D01*
X243475832Y-67977963D01*
X243475832Y-67977964D01*
X243390907Y-68094852D01*
X243390905Y-68094855D01*
X243301581Y-68270164D01*
X243240778Y-68457294D01*
X243210000Y-68651617D01*
X238605772Y-68651617D01*
X237854928Y-67900773D01*
X235612511Y-65658357D01*
X235612509Y-65658354D01*
X235493638Y-65539483D01*
X235493637Y-65539482D01*
X235406825Y-65489362D01*
X235406825Y-65489361D01*
X235406821Y-65489360D01*
X235356706Y-65460425D01*
X235203978Y-65419501D01*
X235045864Y-65419501D01*
X235038268Y-65419501D01*
X235038252Y-65419502D01*
X221793875Y-65419502D01*
X221793859Y-65419501D01*
X221786263Y-65419501D01*
X221628148Y-65419501D01*
X221551784Y-65439963D01*
X221475419Y-65460425D01*
X221475414Y-65460428D01*
X221338495Y-65539477D01*
X221338487Y-65539483D01*
X208219479Y-78658491D01*
X208196144Y-78698910D01*
X208183085Y-78721530D01*
X208161754Y-78758476D01*
X208140423Y-78795421D01*
X208140423Y-78795422D01*
X208099499Y-78948150D01*
X208099499Y-78948152D01*
X208099499Y-79116253D01*
X208099500Y-79116266D01*
X208099500Y-79120234D01*
X208079815Y-79187273D01*
X208078602Y-79189125D01*
X207990609Y-79320814D01*
X207990602Y-79320827D01*
X207930264Y-79466498D01*
X207930261Y-79466510D01*
X207899500Y-79621153D01*
X202620133Y-79621153D01*
X202620133Y-66320723D01*
X202620199Y-66316666D01*
X202637770Y-65779922D01*
X202638301Y-65771825D01*
X202690740Y-65239391D01*
X202691791Y-65231408D01*
X202778948Y-64703507D01*
X202780519Y-64695610D01*
X202902014Y-64174545D01*
X202904103Y-64166748D01*
X203059412Y-63654765D01*
X203062019Y-63647088D01*
X203250470Y-63146386D01*
X203253564Y-63138917D01*
X203474372Y-62651581D01*
X203477936Y-62644353D01*
X203730147Y-62172502D01*
X203734198Y-62165486D01*
X204016706Y-61711177D01*
X204021214Y-61704430D01*
X204123241Y-61562052D01*
X204332835Y-61269561D01*
X204337772Y-61263129D01*
X204677178Y-60849560D01*
X204682502Y-60843490D01*
X204818260Y-60698543D01*
X225399499Y-60698543D01*
X225437947Y-60891829D01*
X225437950Y-60891839D01*
X225513364Y-61073907D01*
X225513371Y-61073920D01*
X225622860Y-61237781D01*
X225622863Y-61237785D01*
X225762214Y-61377136D01*
X225762218Y-61377139D01*
X225926079Y-61486628D01*
X225926092Y-61486635D01*
X226108160Y-61562049D01*
X226108165Y-61562051D01*
X226108169Y-61562051D01*
X226108170Y-61562052D01*
X226301456Y-61600500D01*
X226301459Y-61600500D01*
X226498543Y-61600500D01*
X226628582Y-61574632D01*
X226691835Y-61562051D01*
X226873914Y-61486632D01*
X227037782Y-61377139D01*
X227177139Y-61237782D01*
X227286632Y-61073914D01*
X227362051Y-60891835D01*
X227400500Y-60698543D01*
X233399499Y-60698543D01*
X233437947Y-60891829D01*
X233437950Y-60891839D01*
X233513364Y-61073907D01*
X233513371Y-61073920D01*
X233622860Y-61237781D01*
X233622863Y-61237785D01*
X233762214Y-61377136D01*
X233762218Y-61377139D01*
X233926079Y-61486628D01*
X233926092Y-61486635D01*
X234108160Y-61562049D01*
X234108165Y-61562051D01*
X234108169Y-61562051D01*
X234108170Y-61562052D01*
X234301456Y-61600500D01*
X234301459Y-61600500D01*
X234498543Y-61600500D01*
X234628582Y-61574632D01*
X234691835Y-61562051D01*
X234873914Y-61486632D01*
X235037782Y-61377139D01*
X235177139Y-61237782D01*
X235286632Y-61073914D01*
X235362051Y-60891835D01*
X235400500Y-60698541D01*
X235400500Y-60501459D01*
X235400500Y-60501456D01*
X235362052Y-60308170D01*
X235362051Y-60308169D01*
X235362051Y-60308165D01*
X235362049Y-60308160D01*
X235286635Y-60126092D01*
X235286628Y-60126079D01*
X235177139Y-59962218D01*
X235177136Y-59962214D01*
X235037785Y-59822863D01*
X235037781Y-59822860D01*
X234873920Y-59713371D01*
X234873907Y-59713364D01*
X234691839Y-59637950D01*
X234691829Y-59637947D01*
X234498543Y-59599500D01*
X234498541Y-59599500D01*
X234301459Y-59599500D01*
X234301457Y-59599500D01*
X234108170Y-59637947D01*
X234108160Y-59637950D01*
X233926092Y-59713364D01*
X233926079Y-59713371D01*
X233762218Y-59822860D01*
X233762214Y-59822863D01*
X233622863Y-59962214D01*
X233622860Y-59962218D01*
X233513371Y-60126079D01*
X233513364Y-60126092D01*
X233437950Y-60308160D01*
X233437947Y-60308170D01*
X233399500Y-60501456D01*
X233399500Y-60501459D01*
X233399500Y-60698541D01*
X233399500Y-60698543D01*
X233399499Y-60698543D01*
X227400500Y-60698543D01*
X227400500Y-60698541D01*
X227400500Y-60501459D01*
X227400500Y-60501456D01*
X227362052Y-60308170D01*
X227362051Y-60308169D01*
X227362051Y-60308165D01*
X227362049Y-60308160D01*
X227286635Y-60126092D01*
X227286628Y-60126079D01*
X227177139Y-59962218D01*
X227177136Y-59962214D01*
X227037785Y-59822863D01*
X227037781Y-59822860D01*
X226873920Y-59713371D01*
X226873907Y-59713364D01*
X226691839Y-59637950D01*
X226691829Y-59637947D01*
X226498543Y-59599500D01*
X226498541Y-59599500D01*
X226301459Y-59599500D01*
X226301457Y-59599500D01*
X226108170Y-59637947D01*
X226108160Y-59637950D01*
X225926092Y-59713364D01*
X225926079Y-59713371D01*
X225762218Y-59822860D01*
X225762214Y-59822863D01*
X225622863Y-59962214D01*
X225622860Y-59962218D01*
X225513371Y-60126079D01*
X225513364Y-60126092D01*
X225437950Y-60308160D01*
X225437947Y-60308170D01*
X225399500Y-60501456D01*
X225399500Y-60501459D01*
X225399500Y-60698541D01*
X225399500Y-60698543D01*
X225399499Y-60698543D01*
X204818260Y-60698543D01*
X205048252Y-60452983D01*
X205053933Y-60447302D01*
X205444440Y-60081552D01*
X205450510Y-60076228D01*
X205864084Y-59736817D01*
X205870517Y-59731882D01*
X205896349Y-59713371D01*
X206305386Y-59420259D01*
X206312127Y-59415756D01*
X206435834Y-59338830D01*
X206766446Y-59133241D01*
X206773452Y-59129197D01*
X207245303Y-58876986D01*
X207252531Y-58873422D01*
X207739867Y-58652614D01*
X207747336Y-58649520D01*
X208248044Y-58461066D01*
X208255715Y-58458462D01*
X208767698Y-58303153D01*
X208775495Y-58301064D01*
X209296560Y-58179569D01*
X209304457Y-58177998D01*
X209832358Y-58090841D01*
X209840341Y-58089790D01*
X210372786Y-58037350D01*
X210380861Y-58036820D01*
X210917617Y-58019249D01*
X210921674Y-58019183D01*
X210985525Y-58019183D01*
X243257739Y-58019183D01*
X243321590Y-58019183D01*
X243325647Y-58019249D01*
G37*
%TD.AperFunction*%
%TD*%
M02*
